<?xml version="1.0" standalone="no"?>
<!DOCTYPE svg PUBLIC "-//W3C//DTD SVG 1.1//EN" "http://www.w3.org/Graphics/SVG/1.1/DTD/svg11.dtd" >
<svg>
<metadata>
Created by FontForge 20110222 at Mon Mar  7 13:34:46 2011
 By www-data
Copyright [c] 2011 by RETICULA. All rights reserved.
</metadata>
<defs>
<font id="Inception" horiz-adv-x="1992" >
  <font-face 
    font-family="Inception"
    font-weight="400"
    font-stretch="normal"
    units-per-em="1000"
    panose-1="2 0 5 3 0 0 0 0 0 0"
    ascent="800"
    descent="-200"
    x-height="706"
    cap-height="707"
    bbox="-35 -162 1960 805"
    underline-thickness="20"
    underline-position="-133"
    unicode-range="U+0020-20AC"
  />
    <missing-glyph />
    <glyph glyph-name="space" unicode=" " horiz-adv-x="300" 
 />
    <glyph glyph-name="percent" unicode="%" horiz-adv-x="860" 
d="M176 -5h-60l514 707l8 -6l-500 -690h32l507 699h65l-513 -707l-9 6l500 690h-37zM213 343c-98 0 -170 72 -173 169l11 1c3 -91 67 -159 162 -159s164 72 164 171c0 98 -69 169 -163 169c-93 0 -161 -68 -164 -162h-11c3 99 78 173 175 173c101 0 174 -75 174 -181
c0 -105 -73 -181 -175 -181zM215 370c-77 0 -130 63 -130 155c0 85 46 145 116 152l1 -11c-65 -7 -106 -61 -106 -142c0 -85 48 -143 119 -143c70 0 116 56 116 143c0 79 -41 135 -106 142l2 11c69 -8 115 -72 115 -154c0 -92 -51 -153 -127 -153zM214 410
c-54 0 -89 46 -89 115c0 67 35 112 88 112c50 0 86 -43 89 -105l-11 -1c-3 56 -35 95 -78 95c-47 0 -77 -40 -77 -102s31 -103 78 -103c44 0 74 36 77 92l11 -1c-4 -62 -38 -102 -88 -102zM641 -5c-98 0 -169 68 -174 169l11 1c5 -95 71 -159 163 -159c95 0 164 72 164 171
c0 96 -70 169 -163 169s-161 -67 -164 -162h-11c3 99 77 173 175 173c101 0 174 -75 174 -181c0 -105 -73 -181 -175 -181zM642 23c-77 0 -129 62 -129 154c0 87 45 145 116 152l1 -11c-65 -5 -106 -62 -106 -142c0 -86 46 -142 118 -142s117 55 117 142
c0 79 -41 135 -106 142l1 11c69 -8 116 -71 116 -154c0 -90 -52 -152 -128 -152zM642 63c-54 0 -89 45 -89 114c0 67 36 113 88 113c50 0 86 -44 89 -106h-11c-3 55 -35 95 -78 95c-48 0 -77 -41 -77 -103s30 -102 78 -102c44 0 73 35 77 91l11 -1c-4 -61 -39 -101 -88 -101
z" />
    <glyph glyph-name="ampersand" unicode="&#x26;" horiz-adv-x="696" 
d="M674 71l-83 -58l-114 116c-28 -27 -31 -30 -33 -32c-53 -43 -111 -65 -173 -65c-121 0 -200 69 -200 174c0 91 45 127 213 196c111 39 152 76 152 139c0 59 -41 96 -105 96c-67 0 -109 -42 -109 -109c0 -40 19 -82 47 -110l-9 -7c-38 46 -49 74 -49 120
c0 71 47 117 120 117c71 0 116 -43 116 -111c0 -78 -44 -101 -205 -164c-118 -48 -160 -91 -160 -169c0 -95 78 -161 189 -161c81 0 131 27 206 102l115 -117l65 45l-102 101c26 34 51 74 92 146l-63 35c-39 -73 -59 -102 -108 -165l-149 149l7 8l141 -141
c29 38 30 39 105 164l40 -22l-3 -5l3 5l42 -23c-66 -110 -82 -136 -92 -150zM472 82l84 -85l-8 -8l-77 78c-63 -51 -131 -76 -204 -76c-143 0 -241 85 -241 210c0 87 45 152 134 194c-32 47 -47 90 -47 139c0 110 92 190 218 190c116 0 202 -75 202 -184
c0 -84 -48 -145 -143 -184l82 -83c22 34 43 72 64 114l10 -5c-23 -45 -50 -92 -72 -126l-103 104c104 39 151 96 151 182c0 98 -82 171 -191 171c-121 0 -207 -75 -207 -181c0 -48 14 -86 52 -142c-101 -50 -139 -102 -139 -191c0 -104 79 -196 230 -196c73 0 128 21 205 79
zM136 196c0 -65 55 -109 136 -109c58 0 118 28 169 79l-155 158l8 7l162 -165c-35 -46 -123 -90 -184 -90c-94 0 -147 52 -147 123c0 85 35 107 242 197c74 29 112 77 112 146c0 79 -64 137 -149 137c-95 0 -162 -60 -162 -146c0 -45 14 -77 53 -132l-9 -6
c-43 60 -55 93 -55 140c0 90 73 156 173 156c94 0 160 -63 160 -151c0 -71 -40 -122 -119 -154c-206 -89 -235 -109 -235 -190zM604 309c-45 -78 -57 -94 -93 -139l93 -92l-8 -8l-100 99l29 37c16 22 34 49 70 109zM322 593c-36 -3 -57 -28 -57 -68c0 -27 9 -46 37 -80
c63 25 86 49 86 88c0 30 -15 50 -42 57l3 11c42 -11 50 -48 50 -70c0 -42 -42 -84 -100 -99c-32 32 -45 60 -45 95c0 44 27 74 68 77v-11zM196 182c11 -34 44 -54 89 -54c30 0 61 12 92 35l-126 129c-40 -22 -59 -50 -59 -86h-11c0 41 37 90 72 99l141 -143
c-39 -31 -73 -45 -109 -45c-50 0 -86 22 -100 62z" />
    <glyph glyph-name="asterisk" unicode="*" horiz-adv-x="430" 
d="M188 548l-120 70l21 35l91 -53v100h11v-119l-98 57l-10 -16l111 -64zM74 448l-22 35l92 54l-87 50l6 10l103 -60l-98 -58l10 -16l99 58l6 -10zM253 374h-11v118l98 -57l10 17l-105 61l5 9l115 -67l-22 -35l-90 53v-99zM370 477l-103 60l98 57l-11 19l-141 -82v174h40
v-105l86 51l5 -10l-102 -60v113h-18v-144l134 79l22 -39l-91 -53l87 -51zM224 368h-44v105l-86 -50l-5 9l102 60v-113h22v134h11v-145z" />
    <glyph glyph-name="plus" unicode="+" horiz-adv-x="640" 
d="M351 376h-246v11h235v186h11v-197zM568 422h-183v177h-83v-172h-11v183h105v-177h172v-11zM396 110h-11v183h178v83h-172v11h183v-105h-178v-172zM351 104h-105v178h-173v11h184v-178h83v223h197v-11h-186v-223zM302 141h-11v186h-223v106h178v172h11v-183h-178v-84h223
v-197z" />
    <glyph glyph-name="comma" unicode="," horiz-adv-x="286" 
d="M161 68h-37v37h37v-37zM135 79h15v15h-15v-15zM27 -97l-1 11c62 4 93 33 93 87h-62v170h73v-11h-62v-148h61c0 -74 -26 -102 -102 -109zM66 -123l-2 11c79 13 105 50 105 148h-77v100h101v-74h-11v63h-79v-78h77c0 -115 -25 -154 -114 -170zM35 -160l-9 44l11 2l7 -35
c120 4 174 61 174 181v128h-57v11h68v-139c0 -128 -65 -192 -194 -192z" />
    <glyph glyph-name="hyphen" unicode="-" horiz-adv-x="408" 
d="M337 281h-292v103h312v-11h-301v-81h281v-11zM362 236h-312v11h301v82h-281v11h292v-104z" />
    <glyph glyph-name="period" unicode="." horiz-adv-x="286" 
d="M187 35h-101v100h101v-30h-11v19h-79v-78h79v19h11v-30zM222 0h-67v11h56v148h-150v-148h59v-11h-70v170h172v-170zM155 66h-37v37h37v-37zM129 77h15v15h-15v-15z" />
    <glyph glyph-name="slash" unicode="/" horiz-adv-x="530" 
d="M63 -127h-97l444 929l10 -5l-437 -913h73l420 877l10 -4zM108 -124l-10 5l437 913h-73l-418 -875l-10 5l422 881h96z" />
    <glyph glyph-name="zero" unicode="0" horiz-adv-x="730" 
d="M367 127c-96 0 -159 91 -159 229c0 132 65 225 157 225c88 0 153 -87 158 -211h-11c-5 116 -67 200 -147 200c-87 0 -146 -87 -146 -216c0 -127 61 -216 148 -216c82 0 138 75 145 193l11 -1c-8 -122 -70 -203 -156 -203zM367 719c182 0 313 -153 313 -365
s-132 -365 -315 -365c-177 0 -305 140 -313 341l11 1c8 -196 131 -331 302 -331c176 0 304 150 304 356c0 203 -128 352 -302 352c-173 0 -297 -138 -305 -338h-11c8 205 137 349 316 349zM387 35l-1 11c136 11 231 138 231 310c0 178 -105 308 -250 308
c-146 0 -252 -131 -252 -312c0 -171 94 -296 231 -307l-1 -11c-143 11 -241 140 -241 320c0 187 110 321 263 321c150 0 261 -136 261 -319c0 -178 -99 -310 -241 -321zM346 623c-108 -11 -179 -117 -179 -269c0 -161 81 -270 200 -270s198 108 198 270
c0 146 -73 256 -180 269l2 11c111 -13 189 -129 189 -282c0 -183 -98 -279 -209 -279c-126 0 -211 115 -211 284c0 155 76 266 189 277z" />
    <glyph glyph-name="one" unicode="1" horiz-adv-x="422" 
d="M184 5h-11v539l-120 -29l-24 96l196 52h61v-614h-11v603h-49l-184 -49l19 -75l123 30v-553zM335 0h-112v603l-115 -29l-2 11l128 32v-606h90v690h-98l-199 -60l-3 11l201 60h110v-712z" />
    <glyph glyph-name="two" unicode="2" horiz-adv-x="623" 
d="M571 44h-471v11h460v77h-314l126 97c145 114 181 166 181 267c0 126 -93 210 -234 210c-110 0 -181 -40 -255 -142l-9 6c79 107 151 147 264 147c149 0 245 -87 245 -223c0 -105 -39 -161 -185 -273l-101 -78h293v-99zM565 0h-520v129l234 192c90 76 118 110 118 162
s-34 85 -88 85c-50 0 -90 -27 -141 -95l-82 65c77 102 132 136 233 136c127 0 198 -68 198 -189c0 -86 -37 -131 -170 -233l-154 -117l-7 8l154 117c135 104 166 144 166 227c0 115 -65 176 -187 176c-92 0 -151 -33 -218 -123l65 -52c57 70 91 91 143 91
c61 0 99 -37 99 -96c0 -56 -29 -92 -122 -171l-230 -188v-113h509v-11zM521 88h-421v26l219 179c120 101 128 113 137 194c0 80 -56 135 -140 135c-56 0 -114 -31 -161 -86l-8 7c49 57 110 89 169 89c92 0 146 -52 151 -145c0 -72 -35 -122 -149 -208l-207 -170v-10h410v-11
z" />
    <glyph glyph-name="three" unicode="3" horiz-adv-x="621" 
d="M310 -11c-116 0 -220 47 -279 126l75 71l4 -3c66 -66 128 -93 211 -93c88 0 136 52 136 124c0 85 -68 127 -207 127l-15 59l193 194v20h-310v11h321v-36l-191 -193l10 -44c138 0 210 -47 210 -141c0 -79 -59 -132 -147 -132c-84 0 -150 28 -215 92l-60 -57
c66 -76 154 -114 264 -114c147 0 245 89 245 224c0 107 -61 167 -193 191l182 174v107h-465v11h476v-123l-170 -162c116 -22 181 -92 181 -200c0 -140 -103 -233 -256 -233zM305 32c-64 0 -135 28 -202 80l6 9c65 -51 132 -78 196 -78c125 0 202 67 202 178
c0 84 -49 134 -148 154l-69 7l-4 19l203 194v57h-404v-76h281l-173 -174l22 -90h59c91 0 142 -34 142 -96c0 -55 -41 -90 -104 -90c-69 0 -118 25 -172 85l8 8c50 -58 98 -82 164 -82c56 0 93 31 93 81c0 53 -48 83 -131 83h-68l-25 104l158 160h-265v98h426v-73l-202 -193
l1 -4l62 -7c104 -19 157 -76 157 -167c0 -111 -84 -187 -213 -187z" />
    <glyph glyph-name="four" unicode="4" horiz-adv-x="689" 
d="M405 274h-203l203 237v-237zM226 285h168v196zM551 5h-11v156h93v71h-143v422h-56l-339 -392l14 -57h293v-11h-302l-17 71l346 400h72v-422h143v-93h-93v-145zM501 0h-107v150h-339l-27 115l386 447h137v-427h88v-11h-99v427h-121l-379 -439l24 -101h341v-150h85v194h110
v-11h-99v-194zM452 49h-11v550l-291 -337l5 -19h247v-11h-256l-8 33l314 363v-579z" />
    <glyph glyph-name="five" unicode="5" horiz-adv-x="630" 
d="M181 294l-93 62l20 351h432v-11h-422l-19 -334l83 -55c40 17 79 25 116 25c44 0 129 -14 129 -102c0 -64 -46 -102 -122 -102c-60 0 -108 22 -170 77l8 8c56 -51 107 -74 162 -74c71 0 111 31 111 93c0 55 -45 89 -118 89c-36 0 -46 -3 -117 -27zM318 423
c130 0 210 -72 210 -190c0 -122 -86 -201 -221 -201c-78 0 -141 22 -206 72l6 9c63 -48 125 -70 200 -70c128 0 210 75 210 192c0 111 -74 177 -199 177c-18 0 -95 -9 -109 -14l-25 17l12 204h300v-11h-289l-11 -188l15 -10c46 9 71 12 107 13zM577 235
c0 -148 -105 -246 -270 -246c-105 0 -186 31 -264 106l-4 3l67 80c89 -67 125 -85 196 -85c105 0 165 52 165 143c0 111 -104 133 -172 133c-39 0 -101 -12 -106 -17l-6 -2l-45 31l17 282h391v-101h-297l-7 -107c29 6 37 7 86 10c159 0 249 -84 249 -230zM328 454
c-37 0 -63 -5 -98 -14l9 133h296v79h-370l-15 -265l35 -24h3c5 5 74 17 107 17c117 0 183 -53 183 -147c0 -96 -65 -151 -176 -151c-67 0 -122 22 -195 81l-53 -64c71 -67 152 -99 253 -99c158 0 259 93 259 235c0 140 -86 219 -238 219z" />
    <glyph glyph-name="six" unicode="6" horiz-adv-x="662" 
d="M354 612c-132 0 -188 -86 -198 -296c0 -153 61 -234 177 -234c99 0 162 62 162 159c0 73 -61 127 -145 127c-61 0 -122 -25 -152 -61l-9 7c33 39 98 65 161 65c89 0 156 -58 156 -138c0 -103 -69 -170 -173 -170c-122 0 -188 86 -188 244c0 201 72 308 209 308
c51 0 92 -11 139 -38l-6 -10c-40 25 -86 37 -133 37zM331 120c-81 0 -127 47 -127 111c0 65 50 106 125 106c77 0 127 -43 127 -109c0 -67 -48 -108 -125 -108zM331 131c71 0 114 37 114 99c0 59 -44 96 -116 96c-69 0 -114 -37 -114 -95c0 -62 44 -100 116 -100zM359 708
c-180 0 -287 -121 -299 -338l-11 1c14 223 126 348 310 348c85 0 151 -23 221 -77l-7 -9c-65 52 -130 75 -214 75zM358 464c153 0 250 -89 250 -229c0 -142 -114 -246 -271 -246c-189 0 -287 114 -289 342h11c2 -223 94 -331 278 -331c151 0 260 99 260 237
c0 131 -94 216 -239 216c-60 0 -79 -7 -151 -50c15 82 19 101 48 134c25 29 58 43 99 43c49 0 86 -12 141 -53l48 71c-54 43 -114 63 -184 63c-162 0 -250 -115 -250 -329c0 -182 66 -277 202 -290l-1 -11c-136 12 -212 103 -212 303c0 218 93 338 261 338
c78 0 157 -30 199 -72l-60 -89c-52 42 -93 58 -144 58c-74 0 -120 -50 -133 -144c45 28 84 39 137 39zM359 412c-58 0 -116 -19 -160 -53l-6 8c43 36 100 56 166 56c111 0 197 -77 197 -177c0 -132 -73 -209 -205 -216l-1 11c126 7 193 77 195 205c0 93 -81 166 -186 166z
" />
    <glyph glyph-name="seven" unicode="7" horiz-adv-x="619" 
d="M262 0h-128l316 573v34h-336v11h347l-1 -49l-307 -558h103l309 576v109h-495v11h506v-123zM91 3l-10 5l307 555h-324v100h457v-79l-292 -543l-10 5l291 541v65h-435v-78h331z" />
    <glyph glyph-name="eight" unicode="8" horiz-adv-x="630" 
d="M315 410c-67 0 -105 39 -105 93c0 52 45 86 105 86c51 0 91 -26 102 -66l-11 -3c-11 36 -46 58 -91 58c-58 0 -94 -32 -94 -77c0 -48 38 -80 94 -80c48 0 83 23 92 62l10 -2c-9 -44 -49 -71 -102 -71zM315 115c-78 0 -126 36 -126 94c0 55 49 91 126 91
c79 0 125 -37 125 -93s-49 -92 -125 -92zM315 289c-40 0 -115 -12 -115 -82c0 -50 48 -81 115 -81c73 0 114 35 114 83c0 49 -45 80 -114 80zM315 -11c-155 0 -263 75 -274 189l11 1c11 -109 115 -179 263 -179c160 0 262 79 262 201c0 77 -27 114 -118 164
c67 37 95 83 95 154c0 106 -102 185 -239 185c-139 0 -240 -79 -240 -187c0 -71 22 -104 95 -153c-76 -34 -111 -75 -117 -146l-11 1c5 65 40 114 105 147c-59 39 -83 84 -83 153c0 113 106 196 251 196c146 0 250 -82 250 -198c0 -66 -26 -113 -84 -152
c76 -41 107 -90 107 -166c0 -126 -106 -210 -273 -210zM315 73c-111 0 -184 54 -184 137c0 76 66 132 184 132c109 0 183 -54 183 -135c0 -80 -74 -134 -183 -134zM315 331c-61 0 -173 -17 -173 -124c0 -73 69 -123 173 -123c60 0 172 19 172 126c0 74 -67 121 -172 121z
M315 372c-93 0 -152 52 -152 135c0 69 56 118 140 123v-11c-76 -3 -129 -49 -129 -115c0 -73 56 -121 141 -121c89 0 140 49 140 122c0 58 -44 102 -112 113l1 11c74 -11 122 -60 122 -127c0 -77 -61 -130 -151 -130zM303 26c-128 3 -215 73 -215 178c0 81 45 136 131 162
c-63 17 -103 73 -103 144c0 96 86 164 199 164c108 0 198 -64 198 -165c0 -70 -40 -125 -105 -143c57 -11 133 -69 133 -160c0 -100 -75 -168 -197 -179l-1 11c73 6 187 41 187 170c0 79 -66 144 -154 152v11c81 12 126 62 126 139c0 88 -79 153 -187 153
c-109 0 -188 -63 -188 -154c0 -77 51 -132 127 -138v-11c-92 -7 -155 -71 -155 -157c0 -96 83 -163 204 -166v-11z" />
    <glyph glyph-name="nine" unicode="9" horiz-adv-x="662" 
d="M307 96c129 0 197 102 197 295c0 152 -62 235 -176 235c-104 0 -163 -67 -163 -159c0 -73 61 -127 146 -127c59 0 122 25 152 61l9 -7c-34 -40 -97 -65 -161 -65c-92 0 -157 57 -157 138c0 102 69 170 174 170c122 0 187 -85 187 -245c0 -199 -73 -307 -208 -307
c-52 0 -94 11 -139 38l5 10c44 -27 82 -37 134 -37zM329 588c81 0 127 -47 127 -111c0 -65 -50 -106 -125 -106c-78 0 -126 41 -126 109s47 108 124 108zM329 577c-72 0 -113 -36 -113 -99c0 -59 44 -96 115 -96c69 0 114 37 114 95c0 61 -45 100 -116 100zM301 0
c181 0 288 121 299 338h11c-15 -291 -194 -349 -310 -349c-87 0 -152 23 -221 77l7 9c69 -54 129 -75 214 -75zM302 244c-153 0 -250 89 -250 229c0 150 123 246 271 246c189 0 289 -115 289 -341l-11 -1c0 221 -97 331 -278 331c-152 0 -260 -98 -260 -237
c0 -131 94 -216 239 -216c57 0 95 13 151 50c-11 -117 -61 -177 -147 -177c-53 0 -85 12 -140 53l-49 -71c58 -45 115 -63 184 -63c161 0 250 117 250 329c0 183 -65 277 -201 290l1 11c142 -13 211 -111 211 -302c0 -216 -91 -339 -261 -339c-78 0 -130 20 -199 72l61 89
c53 -42 92 -58 143 -58c71 0 121 51 134 144c-43 -27 -85 -39 -138 -39zM302 296c63 0 116 18 159 54l7 -9c-43 -36 -100 -56 -166 -56c-112 0 -197 76 -197 177c0 132 74 209 205 216v-11c-124 -7 -192 -76 -194 -205c0 -73 59 -166 186 -166z" />
    <glyph glyph-name="colon" unicode=":" horiz-adv-x="296" 
d="M200 35h-101v100h101v-30h-11v19h-79v-78h79v19h11v-30zM235 0h-67v11h56v148h-150v-148h59v-11h-70v170h172v-170zM168 66h-37v37h37v-37zM142 77h15v15h-15v-15zM200 409h-101v30h11v-19h79v78h-79v-19h-11v30h101v-100zM235 374h-172v170h68v-11h-57v-148h150v148h-58
v11h69v-170zM168 440h-37v37h37v-37zM142 451h15v15h-15v-15z" />
    <glyph glyph-name="semicolon" unicode=";" horiz-adv-x="296" 
d="M167 68h-37v37h37v-37zM141 79h15v15h-15v-15zM199 410h-101v31h11v-20h79v78h-79v-19h-11v30h101v-100zM235 375h-172v170h67v-11h-56v-148h150v148h-59v11h70v-170zM167 442h-37v37h37v-37zM141 453h15v15h-15v-15zM33 -97l-1 11c62 4 93 33 93 87h-62v170h73v-11h-62
v-148h61c0 -74 -26 -102 -102 -109zM72 -123l-2 11c79 13 105 50 105 148h-77v100h101v-74h-11v63h-79v-78h77c0 -115 -25 -154 -114 -170zM41 -160l-9 44l11 2l7 -35c120 4 174 61 174 181v128h-57v11h68v-139c0 -128 -65 -192 -194 -192z" />
    <glyph glyph-name="equal" unicode="=" horiz-adv-x="640" 
d="M524 457h-447v104h477v-11h-466v-82h436v-11zM559 413h-477v11h466v81h-436v11h447v-103zM524 198h-447v104h477v-11h-466v-82h436v-11zM559 154h-477v11h466v82h-436v11h447v-104z" />
    <glyph glyph-name="question" unicode="?" horiz-adv-x="544" 
d="M292 35h-30v11h19v79h-78v-79h19v-11h-30v101h100v-101zM327 0h-170v67h11v-56h148v150h-148v-59h-11v70h170v-172zM260 67h-36v37h36v-37zM235 78h14v15h-14v-15zM191 242l-24 164l9 8c108 0 171 33 171 87c0 41 -32 65 -86 65c-57 0 -100 -21 -150 -71l-68 76
c71 71 133 101 220 101c123 0 200 -65 200 -170c0 -91 -52 -143 -162 -163l-27 -6v-28h-11v37c144 28 189 66 189 160c0 98 -72 159 -189 159c-85 0 -148 -31 -205 -91l54 -59c45 44 94 66 149 66c62 0 97 -28 97 -78c0 -59 -59 -91 -178 -96l21 -159zM302 237h-67l-19 135
c134 22 184 58 184 132c0 68 -51 110 -130 110c-57 0 -111 -18 -160 -55l-7 9c52 38 108 57 167 57c90 0 141 -45 141 -124c0 -75 -61 -121 -183 -138l17 -115h48l11 60l3 1c132 27 192 88 192 196c0 123 -91 201 -235 201c-96 0 -176 -35 -240 -106l-8 7
c67 73 149 110 248 110c153 0 246 -81 246 -214c0 -109 -66 -177 -197 -204z" />
    <glyph glyph-name="at" unicode="@" horiz-adv-x="980" 
d="M462 166c-61 0 -99 39 -99 102c0 79 57 145 125 145c59 0 98 -39 98 -98c0 -82 -55 -149 -124 -149zM488 402c-63 0 -114 -60 -114 -134c0 -37 15 -91 88 -91c62 0 113 63 113 138c0 52 -35 87 -87 87zM499 -162c-253 0 -449 192 -449 439c0 244 197 441 441 441
s439 -190 439 -399c0 -154 -80 -255 -204 -255c-65 0 -114 17 -152 57c-44 -38 -93 -57 -147 -57c-111 0 -187 80 -187 197c0 138 104 255 228 255c55 0 100 -20 134 -61l10 47l128 -21l-51 -289c0 -47 15 -71 67 -71c75 0 121 76 121 198c0 188 -178 348 -386 348
c-218 0 -388 -171 -388 -390c0 -221 170 -388 396 -388c91 0 163 19 241 65l5 -9c-79 -47 -154 -67 -246 -67c-232 0 -407 170 -407 399c0 226 175 401 399 401c217 0 397 -164 397 -359c0 -126 -52 -209 -132 -209c-64 0 -78 38 -78 83l49 279l-107 17l-12 -59
c-42 54 -77 75 -140 75c-118 0 -217 -113 -217 -244c0 -111 71 -186 176 -186c55 0 108 22 148 62c22 -36 80 -62 151 -62c118 0 193 95 193 244c0 209 -197 388 -428 388c-236 0 -430 -194 -430 -430c0 -238 191 -428 438 -428c96 0 177 23 260 74l6 -10
c-84 -50 -171 -75 -266 -75zM646 197l44 251l-47 8l-41 -233c-51 -69 -90 -93 -156 -93c-84 0 -140 57 -140 142c0 100 80 186 172 186c45 0 81 -17 106 -50l8 7c-27 36 -65 54 -114 54c-100 0 -183 -89 -183 -197c0 -91 61 -153 151 -153c66 0 121 33 165 99l41 225l25 -4
l-42 -241c0 -75 18 -98 76 -107l2 11c-54 9 -67 27 -67 95z" />
    <glyph glyph-name="A" unicode="A" horiz-adv-x="790" 
d="M294 291l101 246l100 -246h-201zM395 508l-85 -206h169zM432 668l284 -668h-114l-64 156h-287l-62 -153l-10 4l65 160h301l64 -156h91l-275 646h-59l-259 -610l-11 4l263 617h73zM770 7l-10 -4l-297 698h-133l-294 -690h93l265 623l248 -583l-10 -4l-66 154h-308v11h303
l-167 394l-149 -351h263v-11h-268l-104 -244h-117l303 712h149z" />
    <glyph glyph-name="B" unicode="B" horiz-adv-x="722" 
d="M374 414h-147v158h157c68 0 106 -28 106 -77c0 -53 -40 -81 -116 -81zM238 425h136c71 0 105 22 105 70c0 42 -34 66 -95 66h-146v-136zM557 370c85 -34 123 -89 123 -174c0 -126 -95 -196 -266 -196h-336v701h11v-690h325c164 0 255 66 255 187c0 85 -40 135 -137 170
c74 45 99 83 99 153c0 105 -83 175 -225 175h-273v11h273c145 0 236 -73 236 -188c0 -65 -28 -114 -85 -149zM414 134h-187v164h182c78 0 119 -28 119 -81c0 -56 -37 -83 -114 -83zM238 145h176c70 0 103 23 103 72c0 47 -36 70 -108 70h-171v-142zM368 370h-241v292h287
c111 0 180 -56 180 -144h-11c0 81 -66 133 -169 133h-276v-270h230c135 0 168 26 168 116c0 74 -54 115 -152 115h-196v-198h-11v209h207c103 0 163 -46 163 -126c0 -97 -42 -127 -179 -127zM430 46h-303v292h249c153 0 210 -33 210 -124c0 -83 -68 -125 -201 -125h-208v205
h11v-194h197c134 0 190 42 190 118c0 80 -50 109 -199 109h-238v-270h292c116 0 190 48 190 147h11c0 -102 -71 -158 -201 -158z" />
    <glyph glyph-name="C" unicode="C" horiz-adv-x="738" 
d="M418 709c-200 0 -349 -145 -357 -341h-11c5 195 158 352 368 352c117 0 203 -34 278 -109l-7 -8c-76 75 -156 106 -271 106zM432 624c62 -3 115 -23 161 -62l-7 -8c-42 37 -93 56 -154 59v11zM705 119c-33 -44 -123 -130 -293 -130c-198 0 -351 145 -362 344h11
c11 -191 160 -333 351 -333c118 0 197 33 278 118l-60 61c-59 -62 -135 -95 -220 -95c-155 0 -258 120 -258 281c0 103 76 245 239 258l1 -11c-136 -12 -229 -119 -229 -258c0 -147 103 -259 247 -259c92 0 147 28 219 100zM642 126c-59 -59 -121 -87 -210 -91v11
c82 4 143 31 202 88zM417 567c-113 0 -196 -90 -196 -213c0 -121 84 -213 196 -213c67 0 116 22 179 80l8 -8c-70 -64 -114 -83 -187 -83c-113 0 -207 88 -207 226c0 127 89 222 207 222c64 0 119 -24 178 -76l57 66c-68 65 -142 95 -236 95c-176 0 -306 -132 -306 -311
c0 -165 120 -295 282 -306l-1 -11c-169 11 -292 145 -292 319c0 183 136 320 317 320c97 0 180 -34 247 -102l4 -3l-71 -82l-5 3c-57 53 -111 77 -174 77z" />
    <glyph glyph-name="D" unicode="D" horiz-adv-x="782" 
d="M355 149c124 0 204 81 204 206c0 122 -81 202 -204 202h-113v-414h-11v425h124c129 0 215 -86 215 -215c0 -128 -87 -215 -215 -215h-74v11h74zM193 611v-514h151c162 0 273 104 273 257c0 152 -110 252 -273 252h-107v11h107c170 0 284 -107 284 -265
c0 -156 -116 -266 -284 -266h-162v525h11zM355 11c204 0 352 131 363 319l11 -1c-11 -194 -165 -329 -374 -329h-222v662h199c209 0 348 -123 348 -309c0 -182 -143 -309 -348 -309h-144v11h144c200 0 337 122 337 301c0 176 -136 295 -337 295h-188v-640h211zM719 369
c-8 189 -162 327 -364 327h-266v-691h-11v702h277c213 0 367 -143 375 -337z" />
    <glyph glyph-name="E" unicode="E" horiz-adv-x="670" 
d="M575 45h-449v615h490v-100h-373v-131h328v-147h-328v-135h372v-11h-383v157h328v125h-328v153h373v78h-468v-593h438v-11zM621 0h-541v707h530v-11h-519v-685h519v79h-429v249h332v32h-332v246h389v-11h-378v-224h332v-54h-332v-227h429v-101z" />
    <glyph glyph-name="F" unicode="F" horiz-adv-x="656" 
d="M244 5h-11v275h332v128h-332v159h377v85h-464v-603h-11v614h486v-107h-377v-137h332v-150h-332v-264zM195 0h-115v707h535v-11h-524v-685h93v315h337v33h-337v258h388v-11h-377v-236h337v-55h-337v-315z" />
    <glyph glyph-name="G" unicode="G" horiz-adv-x="784" 
d="M419 709c-200 0 -350 -143 -358 -341h-11c8 192 153 352 369 352c116 0 201 -34 278 -109l-8 -8c-78 76 -164 106 -270 106zM432 624c62 -3 115 -23 161 -62l-7 -8c-42 37 -93 56 -154 59v11zM602 153c-55 -46 -119 -69 -192 -69c-149 0 -258 117 -258 281
c0 103 76 245 239 258l1 -11c-134 -11 -229 -120 -229 -258c0 -147 103 -259 247 -259c70 0 132 22 183 65v118h11v-124zM406 401v-77h258v-177c-89 -85 -134 -107 -232 -112v11c90 4 145 30 221 106v161h-258v99h308v-11h-297zM418 567c-114 0 -197 -90 -197 -213
c0 -121 85 -213 197 -213c47 0 91 14 131 41v87h-149v11h160v-105h-2c-44 -31 -88 -45 -140 -45c-120 0 -208 96 -208 226c0 126 89 222 208 222c64 0 117 -23 177 -76l57 66c-67 65 -140 95 -235 95c-175 0 -307 -134 -307 -311c0 -165 120 -295 282 -306v-11
c-169 11 -293 146 -293 319c0 182 138 320 318 320c97 0 179 -34 246 -102l4 -3l-71 -82c-92 69 -114 80 -178 80zM708 368v-266l-2 -1c-86 -73 -184 -111 -293 -112c-198 0 -354 148 -362 344h11c8 -186 157 -330 343 -333c109 0 207 36 292 107v250h-253v11h264z" />
    <glyph glyph-name="H" unicode="H" horiz-adv-x="760" 
d="M138 60h-11v647h115v-276h271v270h11v-281h-293v276h-93v-636zM677 5h-11v691h-92v-325h-392v275h11v-264h370v325h114v-702zM628 0h-115v279h-271v-274h-11v285h293v-279h93v635h11v-646zM193 0h-115v701h11v-690h93v329h392v-280h-11v269h-370v-329z" />
    <glyph glyph-name="I" unicode="I" horiz-adv-x="336" 
d="M200 0h-115v701h11v-690h93v646h11v-657zM249 5h-11v691h-93v-647h-11v658h115v-702z" />
    <glyph glyph-name="J" unicode="J" horiz-adv-x="564" 
d="M243 -11c-95 0 -172 35 -231 106l-4 4l76 84c28 -56 87 -87 169 -87c88 0 124 64 124 155v394h11v-393c0 -105 -50 -167 -135 -167c-80 0 -140 28 -172 79l-58 -65c57 -66 130 -99 220 -99c154 0 241 88 241 245v455h11v-455c0 -163 -92 -256 -252 -256zM253 36
c-77 0 -137 21 -185 65l8 8c43 -41 103 -62 177 -62c116 0 173 65 182 203v445h-97v-443c0 -79 -34 -121 -99 -121c-46 0 -85 21 -131 71l8 8c43 -48 79 -68 123 -68c59 0 88 37 88 110v454h119v-456c0 -133 -73 -214 -193 -214z" />
    <glyph glyph-name="K" unicode="K" horiz-adv-x="730" 
d="M139 50h-11v657h115v-296l273 294l8 -8l-292 -314v313h-93v-646zM713 2l-299 404l278 290h-115l-394 -428v389h11v-360l378 410h145l-289 -302l294 -396zM194 0h-115v701h11v-690h93v217l142 154l243 -329l-9 -7l-235 318l-130 -140v-224zM662 0h-131l-214 293l-74 -77
v-210h-11v214l86 90l218 -299h105l-293 395l237 255l8 -7l-231 -248z" />
    <glyph glyph-name="L" unicode="L" horiz-adv-x="619" 
d="M593 44h-458v613h11v-602h436v84h-349v562h11v-551h349v-106zM588 0h-508v707h115v-607h355v-11h-366v607h-93v-685h497v-11z" />
    <glyph glyph-name="M" unicode="M" horiz-adv-x="868" 
d="M433 166l203 300v-466h-11v430l-192 -284l-191 284v-430h-11v466zM787 707v-707h-113v579l-241 -346l-240 346v-579h-113v707h11v-696h91v603l251 -362l252 362v-603h91v696h11zM146 49h-11v658h117l181 -283l182 283h117v-658h-11v647h-29l-259 -378l-259 378h-28v-647z
M246 696h-58l245 -358l246 358h-58l-188 -292z" />
    <glyph glyph-name="N" unicode="N" horiz-adv-x="790" 
d="M649 657h11v-657h-89l-329 431v-431h-11v464l345 -453h47l-430 558v-569h-113v707h11v-696h91v590l455 -590h12v646zM709 707v-707h-11v696h-90v-577l-456 577h-6v-647h-11v658h94l318 -418v418h11v-451l-334 440h-58l431 -545v556h112z" />
    <glyph glyph-name="O" unicode="O" horiz-adv-x="850" 
d="M423 -11c-204 0 -360 142 -374 341l11 1c11 -192 162 -331 363 -331c206 0 365 154 365 356c0 201 -156 353 -363 353c-200 0 -357 -147 -365 -339l-11 1c8 198 170 349 376 349c213 0 374 -157 374 -366c0 -207 -162 -365 -376 -365zM425 130c-123 0 -216 98 -216 226
c0 127 92 222 214 222c117 0 208 -87 216 -207l-11 -1c-8 114 -94 197 -205 197c-117 0 -203 -90 -203 -213c0 -122 88 -213 205 -213c109 0 194 80 202 190l11 -1c-11 -117 -100 -200 -213 -200zM425 75c-158 0 -269 126 -269 282c0 150 105 265 245 276l1 -11
c-138 -11 -235 -122 -235 -268c0 -154 111 -268 258 -268s256 115 256 268c0 143 -102 257 -239 268v11c144 -11 250 -131 250 -281c0 -157 -115 -277 -267 -277zM442 31v11c169 8 296 143 296 314c0 176 -135 311 -313 311c-177 0 -315 -136 -315 -315
c0 -169 122 -299 292 -310l-1 -11c-184 12 -302 157 -302 323c0 184 141 324 326 324c184 0 324 -137 324 -324c0 -173 -131 -315 -307 -323z" />
    <glyph glyph-name="P" unicode="P" horiz-adv-x="668" 
d="M243 0h-118v667h226c157 0 242 -75 242 -212c0 -126 -94 -209 -237 -209h-166v-197h-11v208h177c136 0 226 80 226 202c0 125 -84 197 -231 197h-215v-645h96v209h122c169 0 276 94 276 241c0 141 -104 235 -261 235h-279v-691h-11v702h290c165 0 272 -98 272 -248
c0 -151 -113 -250 -287 -250h-111v-209zM356 294h-177v320h11v-309h166c106 0 172 59 172 153c0 96 -63 150 -176 150h-114v11h114c121 0 187 -58 187 -164c0 -96 -74 -161 -183 -161zM359 345h-77v11h77c71 0 116 39 116 102c0 64 -43 100 -119 100h-113v-208h-11v219h124
c46 0 130 -16 130 -113c0 -68 -50 -111 -127 -111z" />
    <glyph glyph-name="Q" unicode="Q" horiz-adv-x="850" 
d="M695 352c0 -64 -18 -120 -53 -169l140 -123l-73 -82l-76 68c-64 -39 -130 -57 -207 -57c-205 0 -363 144 -374 341l11 1c11 -193 161 -331 363 -331c77 0 144 19 204 58l4 2l74 -66l58 65l-270 239l7 8l131 -116c34 47 50 101 50 164c0 143 -102 257 -240 268l1 11
c144 -11 250 -130 250 -281zM405 622c-138 -11 -235 -122 -235 -268c0 -154 111 -268 258 -268c49 0 94 12 133 36l6 -9c-41 -25 -88 -38 -139 -38c-154 0 -269 121 -269 282c0 150 105 265 245 276zM694 188c32 51 47 106 47 168c0 176 -135 311 -313 311
c-177 0 -315 -136 -315 -315c0 -171 121 -299 292 -310l-1 -11c-175 11 -302 147 -302 323c0 184 141 324 326 324c184 0 324 -139 324 -324c0 -33 -6 -103 -48 -172zM639 107c-55 -47 -119 -72 -194 -76l-1 11c71 4 134 28 187 72l-201 173l72 81l113 -102
c8 21 13 42 15 65l11 -1c-2 -28 -8 -49 -22 -82l-116 105l-57 -65l276 -239l-7 -8zM809 98l-7 -8l-73 62l2 4c40 60 60 125 60 200c0 201 -156 353 -363 353c-200 0 -357 -147 -365 -339l-11 1c8 199 170 349 376 349c213 0 374 -157 374 -366c0 -72 -20 -139 -59 -200z
M426 578c116 0 207 -87 215 -207l-11 -1c-8 114 -94 197 -204 197c-118 0 -204 -90 -204 -213c0 -121 89 -213 206 -213c29 0 56 5 80 16l-106 90l7 8l119 -101c-31 -16 -63 -24 -100 -24c-124 0 -217 97 -217 226c0 126 94 222 215 222z" />
    <glyph glyph-name="R" unicode="R" horiz-adv-x="723" 
d="M390 305h-210v309h11v-298h199c107 0 172 56 172 148c0 93 -63 144 -176 144h-147v11h147c123 0 187 -54 187 -158c0 -96 -71 -156 -183 -156zM393 356h-110v11h110c73 0 116 35 116 96c0 66 -37 87 -119 95h-146v-197h-11v208h157c84 0 130 -38 130 -108
c0 -64 -50 -105 -127 -105zM682 2l-169 248c70 35 86 43 113 83c26 38 38 79 38 133c0 142 -100 230 -261 230h-312v-691h-11v702h323c167 0 272 -94 272 -243c0 -103 -51 -180 -145 -219l161 -237zM244 0h-118v667h259c160 0 242 -71 242 -207c0 -123 -93 -203 -237 -203
h-199v-208h-11v219h210c139 0 226 75 226 196c0 122 -78 192 -231 192h-248v-645h96v220h130l148 -220h107l-148 216c-9 -2 -14 -2 -40 -5l119 -176l-9 -6l-129 191c48 5 51 6 64 9l163 -240h-133l-147 220h-114v-220z" />
    <glyph glyph-name="S" unicode="S" horiz-adv-x="640" 
d="M339 125c-76 0 -138 26 -211 86l7 8c72 -58 133 -83 204 -83c61 0 95 22 95 62c0 38 -31 57 -136 83c-179 46 -235 96 -235 220c0 127 103 216 249 216c99 0 187 -30 262 -90l-7 -9c-73 59 -158 88 -255 88c-145 0 -238 -81 -238 -207c0 -115 53 -162 227 -207
c115 -30 144 -49 144 -96c0 -44 -40 -71 -106 -71zM336 -10c-113 0 -215 39 -299 113l-4 3l66 78l4 -2c96 -63 170 -90 247 -90c86 0 143 41 143 102c0 71 -42 101 -206 142c-110 29 -159 69 -170 139l10 2c11 -65 63 -106 167 -132c169 -45 210 -74 210 -154
c0 -64 -64 -110 -154 -110c-78 0 -152 26 -249 89l-52 -63c83 -70 179 -106 287 -106c157 0 250 82 250 212c0 124 -54 159 -292 225c-60 18 -79 36 -79 77c0 40 37 66 95 66c55 0 115 -22 180 -66l49 71c-75 48 -160 76 -225 76c-107 0 -181 -59 -188 -147l-11 1
c8 94 87 157 199 157c72 0 186 -40 241 -84l-62 -89c-88 53 -123 70 -183 70c-30 0 -84 -8 -84 -57c0 -41 24 -54 146 -86c148 -38 225 -92 225 -216c0 -136 -99 -221 -261 -221zM540 216c-4 73 -57 119 -167 147c-172 46 -210 74 -210 155c0 64 65 110 153 110
c58 0 116 -16 180 -53l-6 -10c-64 36 -118 52 -174 52c-85 0 -142 -41 -142 -102c0 -73 36 -96 201 -141c108 -22 172 -78 176 -157zM352 35c-80 0 -174 31 -259 85l6 9c93 -59 153 -76 253 -83c100 0 173 52 186 132l11 -2c-15 -87 -90 -141 -197 -141z" />
    <glyph glyph-name="T" unicode="T" horiz-adv-x="648" 
d="M350 0h-109v555h-212v102h533v-11h-522v-80h212v-555h98v-11zM405 5h-11v561h212v130h-571v11h582v-152h-212v-550zM350 6h-11v557h11v-557zM302 49h-11v550h-212v11h533v-11h-310v-550z" />
    <glyph glyph-name="U" unicode="U" horiz-adv-x="756" 
d="M375 -11c-198 0 -307 112 -307 314v398h11v-398c0 -196 104 -303 296 -303c194 0 299 108 299 308v388h-92v-389c0 -146 -74 -228 -205 -228s-205 84 -205 234v344h11v-344c0 -146 67 -223 194 -223s194 75 194 217v400h114v-399c0 -208 -113 -319 -310 -319zM375 32
c-167 0 -258 94 -258 264v411h115v-400c0 -109 50 -166 145 -166c94 0 144 56 144 161v399h11v-399c0 -109 -56 -172 -155 -172c-101 0 -156 63 -156 177v389h-93v-400c0 -166 85 -253 247 -253s250 91 250 257v357h11v-357c0 -173 -93 -268 -261 -268z" />
    <glyph glyph-name="V" unicode="V" horiz-adv-x="750" 
d="M338 43l-267 663h126l178 -480l177 476l10 -3l-187 -504l-185 500h-102l257 -641h62l242 605l11 -4l-246 -612h-76zM445 -6h-143l-283 704l11 5l280 -698h127l277 690h-93l-245 -616l-229 576l10 4l219 -550l237 597h117z" />
    <glyph glyph-name="W" unicode="W" horiz-adv-x="1122" 
d="M78 706h113l147 -456l151 452l11 -3l-162 -484l-155 480h-90l218 -641h49l202 565l204 -565h48l205 604l11 -3l-208 -612h-64l-195 545l-196 -545h-64zM1093 706l-244 -712h-123l-165 463l-166 -463h-123l-241 705l10 3l239 -697h107l174 485l173 -485h107l236 690h-82
l-208 -612l-214 612h-21l-214 -612l-195 572l10 3l185 -542l206 590h90l153 -451l145 447l11 -3l-156 -478l-161 474h-42l203 -579l200 590h106z" />
    <glyph glyph-name="X" unicode="X" horiz-adv-x="732" 
d="M150 0h-127l246 359l-230 339l9 6l235 -345l-239 -348h100l220 325l192 -284l-9 -6l-183 271zM695 2l-245 359l229 335h-100l-211 -307l-181 265l9 6l172 -252l205 299h127l-237 -346l241 -353zM129 46l-10 6l211 307l-237 348h132l143 -221l143 218l9 -6l-152 -233
l-149 231h-105l229 -337zM649 0h-132l-153 234l-152 -232l-9 6l161 246l159 -243h105l-238 350l204 299l9 -6l-200 -293z" />
    <glyph glyph-name="Y" unicode="Y" horiz-adv-x="716" 
d="M440 5h-11l1 281l262 410h-102l-232 -370l-203 328l10 6l193 -313l226 360h128l-272 -426v-276zM339 49h-11v238l-266 420h134l163 -275l164 272l10 -6l-174 -287l-169 285h-108l257 -406v-241zM388 0h-112v278l-267 420l10 6l268 -423v-270h90l1 283l233 366l10 -6
l-233 -364v-290z" />
    <glyph glyph-name="Z" unicode="Z" horiz-adv-x="708" 
d="M650 44h-535v79l415 482h-409v11h433l-428 -498v-63h513v79h-389l389 453v109h-562v11h573v-124l-376 -438h376v-101zM645 0h-585v124l376 437h-364v102h523v-73l-420 -489h426v-11h-450l433 504v58h-501v-80h377l-389 -452v-109h574v-11z" />
    <glyph glyph-name="bracketleft" unicode="[" horiz-adv-x="465" 
d="M410 -133h-332v836h326v-11h-315v-814h310v69h-225v676h186v-11h-175v-654h225v-91zM360 -94h-233v759h283v-91h-176v-577h170v-11h-181v599h176v69h-261v-737h222v-11z" />
    <glyph glyph-name="backslash" unicode="\" horiz-adv-x="530" 
d="M495 -79l-10 -4l-420 877h-73l437 -913l-10 -5l-444 929h97zM561 -127h-96l-422 881l10 5l418 -875h73l-437 913l10 5z" />
    <glyph glyph-name="bracketright" unicode="]" horiz-adv-x="465" 
d="M388 -132h-327v11h316v814h-310v-69h225v-676h-187v11h176v654h-225v91h332v-836zM338 -93h-282v91h176v577h-171v11h182v-599h-176v-69h260v737h-222v11h233v-759z" />
    <glyph glyph-name="asciicircum" unicode="^" horiz-adv-x="500" 
d="M459 487h-82v11h61l-139 195h-98l-146 -204l-9 7l149 208h109zM161 487h-66l132 184h48l108 -151l-9 -6l-104 146h-38l-115 -162h38l94 126l95 -128l-9 -7l-86 117z" />
    <glyph glyph-name="a" unicode="a" horiz-adv-x="790" 
d="M294 291l101 246l100 -246h-201zM395 508l-85 -206h169zM432 668l284 -668h-114l-64 156h-287l-62 -153l-10 4l65 160h301l64 -156h91l-275 646h-59l-259 -610l-11 4l263 617h73zM770 7l-10 -4l-297 698h-133l-294 -690h93l265 623l248 -583l-10 -4l-66 154h-308v11h303
l-167 394l-149 -351h263v-11h-268l-104 -244h-117l303 712h149z" />
    <glyph glyph-name="b" unicode="b" horiz-adv-x="722" 
d="M374 414h-147v158h157c68 0 106 -28 106 -77c0 -53 -40 -81 -116 -81zM238 425h136c71 0 105 22 105 70c0 42 -34 66 -95 66h-146v-136zM557 370c85 -34 123 -89 123 -174c0 -126 -95 -196 -266 -196h-336v701h11v-690h325c164 0 255 66 255 187c0 85 -40 135 -137 170
c74 45 99 83 99 153c0 105 -83 175 -225 175h-273v11h273c145 0 236 -73 236 -188c0 -65 -28 -114 -85 -149zM414 134h-187v164h182c78 0 119 -28 119 -81c0 -56 -37 -83 -114 -83zM238 145h176c70 0 103 23 103 72c0 47 -36 70 -108 70h-171v-142zM368 370h-241v292h287
c111 0 180 -56 180 -144h-11c0 81 -66 133 -169 133h-276v-270h230c135 0 168 26 168 116c0 74 -54 115 -152 115h-196v-198h-11v209h207c103 0 163 -46 163 -126c0 -97 -42 -127 -179 -127zM430 46h-303v292h249c153 0 210 -33 210 -124c0 -83 -68 -125 -201 -125h-208v205
h11v-194h197c134 0 190 42 190 118c0 80 -50 109 -199 109h-238v-270h292c116 0 190 48 190 147h11c0 -102 -71 -158 -201 -158z" />
    <glyph glyph-name="c" unicode="c" horiz-adv-x="738" 
d="M418 709c-200 0 -349 -145 -357 -341h-11c5 195 158 352 368 352c117 0 203 -34 278 -109l-7 -8c-76 75 -156 106 -271 106zM432 624c62 -3 115 -23 161 -62l-7 -8c-42 37 -93 56 -154 59v11zM705 119c-33 -44 -123 -130 -293 -130c-198 0 -351 145 -362 344h11
c11 -191 160 -333 351 -333c118 0 197 33 278 118l-60 61c-59 -62 -135 -95 -220 -95c-155 0 -258 120 -258 281c0 103 76 245 239 258l1 -11c-136 -12 -229 -119 -229 -258c0 -147 103 -259 247 -259c92 0 147 28 219 100zM642 126c-59 -59 -121 -87 -210 -91v11
c82 4 143 31 202 88zM417 567c-113 0 -196 -90 -196 -213c0 -121 84 -213 196 -213c67 0 116 22 179 80l8 -8c-70 -64 -114 -83 -187 -83c-113 0 -207 88 -207 226c0 127 89 222 207 222c64 0 119 -24 178 -76l57 66c-68 65 -142 95 -236 95c-176 0 -306 -132 -306 -311
c0 -165 120 -295 282 -306l-1 -11c-169 11 -292 145 -292 319c0 183 136 320 317 320c97 0 180 -34 247 -102l4 -3l-71 -82l-5 3c-57 53 -111 77 -174 77z" />
    <glyph glyph-name="d" unicode="d" horiz-adv-x="782" 
d="M355 149c124 0 204 81 204 206c0 122 -81 202 -204 202h-113v-414h-11v425h124c129 0 215 -86 215 -215c0 -128 -87 -215 -215 -215h-74v11h74zM193 611v-514h151c162 0 273 104 273 257c0 152 -110 252 -273 252h-107v11h107c170 0 284 -107 284 -265
c0 -156 -116 -266 -284 -266h-162v525h11zM355 11c204 0 352 131 363 319l11 -1c-11 -194 -165 -329 -374 -329h-222v662h199c209 0 348 -123 348 -309c0 -182 -143 -309 -348 -309h-144v11h144c200 0 337 122 337 301c0 176 -136 295 -337 295h-188v-640h211zM719 369
c-8 189 -162 327 -364 327h-266v-691h-11v702h277c213 0 367 -143 375 -337z" />
    <glyph glyph-name="e" unicode="e" horiz-adv-x="670" 
d="M575 45h-449v615h490v-100h-373v-131h328v-147h-328v-135h372v-11h-383v157h328v125h-328v153h373v78h-468v-593h438v-11zM621 0h-541v707h530v-11h-519v-685h519v79h-429v249h332v32h-332v246h389v-11h-378v-224h332v-54h-332v-227h429v-101z" />
    <glyph glyph-name="f" unicode="f" horiz-adv-x="656" 
d="M244 5h-11v275h332v128h-332v159h377v85h-464v-603h-11v614h486v-107h-377v-137h332v-150h-332v-264zM195 0h-115v707h535v-11h-524v-685h93v315h337v33h-337v258h388v-11h-377v-236h337v-55h-337v-315z" />
    <glyph glyph-name="g" unicode="g" horiz-adv-x="784" 
d="M419 709c-200 0 -350 -143 -358 -341h-11c8 192 153 352 369 352c116 0 201 -34 278 -109l-8 -8c-78 76 -164 106 -270 106zM432 624c62 -3 115 -23 161 -62l-7 -8c-42 37 -93 56 -154 59v11zM602 153c-55 -46 -119 -69 -192 -69c-149 0 -258 117 -258 281
c0 103 76 245 239 258l1 -11c-134 -11 -229 -120 -229 -258c0 -147 103 -259 247 -259c70 0 132 22 183 65v118h11v-124zM406 401v-77h258v-177c-89 -85 -134 -107 -232 -112v11c90 4 145 30 221 106v161h-258v99h308v-11h-297zM418 567c-114 0 -197 -90 -197 -213
c0 -121 85 -213 197 -213c47 0 91 14 131 41v87h-149v11h160v-105h-2c-44 -31 -88 -45 -140 -45c-120 0 -208 96 -208 226c0 126 89 222 208 222c64 0 117 -23 177 -76l57 66c-67 65 -140 95 -235 95c-175 0 -307 -134 -307 -311c0 -165 120 -295 282 -306v-11
c-169 11 -293 146 -293 319c0 182 138 320 318 320c97 0 179 -34 246 -102l4 -3l-71 -82c-92 69 -114 80 -178 80zM708 368v-266l-2 -1c-86 -73 -184 -111 -293 -112c-198 0 -354 148 -362 344h11c8 -186 157 -330 343 -333c109 0 207 36 292 107v250h-253v11h264z" />
    <glyph glyph-name="h" unicode="h" horiz-adv-x="760" 
d="M138 60h-11v647h115v-276h271v270h11v-281h-293v276h-93v-636zM677 5h-11v691h-92v-325h-392v275h11v-264h370v325h114v-702zM628 0h-115v279h-271v-274h-11v285h293v-279h93v635h11v-646zM193 0h-115v701h11v-690h93v329h392v-280h-11v269h-370v-329z" />
    <glyph glyph-name="i" unicode="i" horiz-adv-x="336" 
d="M200 0h-115v701h11v-690h93v646h11v-657zM249 5h-11v691h-93v-647h-11v658h115v-702z" />
    <glyph glyph-name="j" unicode="j" horiz-adv-x="564" 
d="M243 -11c-95 0 -172 35 -231 106l-4 4l76 84c28 -56 87 -87 169 -87c88 0 124 64 124 155v394h11v-393c0 -105 -50 -167 -135 -167c-80 0 -140 28 -172 79l-58 -65c57 -66 130 -99 220 -99c154 0 241 88 241 245v455h11v-455c0 -163 -92 -256 -252 -256zM253 36
c-77 0 -137 21 -185 65l8 8c43 -41 103 -62 177 -62c116 0 173 65 182 203v445h-97v-443c0 -79 -34 -121 -99 -121c-46 0 -85 21 -131 71l8 8c43 -48 79 -68 123 -68c59 0 88 37 88 110v454h119v-456c0 -133 -73 -214 -193 -214z" />
    <glyph glyph-name="k" unicode="k" horiz-adv-x="730" 
d="M139 50h-11v657h115v-296l273 294l8 -8l-292 -314v313h-93v-646zM713 2l-299 404l278 290h-115l-394 -428v389h11v-360l378 410h145l-289 -302l294 -396zM194 0h-115v701h11v-690h93v217l142 154l243 -329l-9 -7l-235 318l-130 -140v-224zM662 0h-131l-214 293l-74 -77
v-210h-11v214l86 90l218 -299h105l-293 395l237 255l8 -7l-231 -248z" />
    <glyph glyph-name="l" unicode="l" horiz-adv-x="619" 
d="M593 44h-458v613h11v-602h436v84h-349v562h11v-551h349v-106zM588 0h-508v707h115v-607h355v-11h-366v607h-93v-685h497v-11z" />
    <glyph glyph-name="m" unicode="m" horiz-adv-x="868" 
d="M433 166l203 300v-466h-11v430l-192 -284l-191 284v-430h-11v466zM787 707v-707h-113v579l-241 -346l-240 346v-579h-113v707h11v-696h91v603l251 -362l252 362v-603h91v696h11zM146 49h-11v658h117l181 -283l182 283h117v-658h-11v647h-29l-259 -378l-259 378h-28v-647z
M246 696h-58l245 -358l246 358h-58l-188 -292z" />
    <glyph glyph-name="n" unicode="n" horiz-adv-x="790" 
d="M649 657h11v-657h-89l-329 431v-431h-11v464l345 -453h47l-430 558v-569h-113v707h11v-696h91v590l455 -590h12v646zM709 707v-707h-11v696h-90v-577l-456 577h-6v-647h-11v658h94l318 -418v418h11v-451l-334 440h-58l431 -545v556h112z" />
    <glyph glyph-name="o" unicode="o" horiz-adv-x="850" 
d="M423 -11c-204 0 -360 142 -374 341l11 1c11 -192 162 -331 363 -331c206 0 365 154 365 356c0 201 -156 353 -363 353c-200 0 -357 -147 -365 -339l-11 1c8 198 170 349 376 349c213 0 374 -157 374 -366c0 -207 -162 -365 -376 -365zM425 130c-123 0 -216 98 -216 226
c0 127 92 222 214 222c117 0 208 -87 216 -207l-11 -1c-8 114 -94 197 -205 197c-117 0 -203 -90 -203 -213c0 -122 88 -213 205 -213c109 0 194 80 202 190l11 -1c-11 -117 -100 -200 -213 -200zM425 75c-158 0 -269 126 -269 282c0 150 105 265 245 276l1 -11
c-138 -11 -235 -122 -235 -268c0 -154 111 -268 258 -268s256 115 256 268c0 143 -102 257 -239 268v11c144 -11 250 -131 250 -281c0 -157 -115 -277 -267 -277zM442 31v11c169 8 296 143 296 314c0 176 -135 311 -313 311c-177 0 -315 -136 -315 -315
c0 -169 122 -299 292 -310l-1 -11c-184 12 -302 157 -302 323c0 184 141 324 326 324c184 0 324 -137 324 -324c0 -173 -131 -315 -307 -323z" />
    <glyph glyph-name="p" unicode="p" horiz-adv-x="668" 
d="M243 0h-118v667h226c157 0 242 -75 242 -212c0 -126 -94 -209 -237 -209h-166v-197h-11v208h177c136 0 226 80 226 202c0 125 -84 197 -231 197h-215v-645h96v209h122c169 0 276 94 276 241c0 141 -104 235 -261 235h-279v-691h-11v702h290c165 0 272 -98 272 -248
c0 -151 -113 -250 -287 -250h-111v-209zM356 294h-177v320h11v-309h166c106 0 172 59 172 153c0 96 -63 150 -176 150h-114v11h114c121 0 187 -58 187 -164c0 -96 -74 -161 -183 -161zM359 345h-77v11h77c71 0 116 39 116 102c0 64 -43 100 -119 100h-113v-208h-11v219h124
c46 0 130 -16 130 -113c0 -68 -50 -111 -127 -111z" />
    <glyph glyph-name="q" unicode="q" horiz-adv-x="850" 
d="M695 352c0 -64 -18 -120 -53 -169l140 -123l-73 -82l-76 68c-64 -39 -130 -57 -207 -57c-205 0 -363 144 -374 341l11 1c11 -193 161 -331 363 -331c77 0 144 19 204 58l4 2l74 -66l58 65l-270 239l7 8l131 -116c34 47 50 101 50 164c0 143 -102 257 -240 268l1 11
c144 -11 250 -130 250 -281zM405 622c-138 -11 -235 -122 -235 -268c0 -154 111 -268 258 -268c49 0 94 12 133 36l6 -9c-41 -25 -88 -38 -139 -38c-154 0 -269 121 -269 282c0 150 105 265 245 276zM694 188c32 51 47 106 47 168c0 176 -135 311 -313 311
c-177 0 -315 -136 -315 -315c0 -171 121 -299 292 -310l-1 -11c-175 11 -302 147 -302 323c0 184 141 324 326 324c184 0 324 -139 324 -324c0 -33 -6 -103 -48 -172zM639 107c-55 -47 -119 -72 -194 -76l-1 11c71 4 134 28 187 72l-201 173l72 81l113 -102
c8 21 13 42 15 65l11 -1c-2 -28 -8 -49 -22 -82l-116 105l-57 -65l276 -239l-7 -8zM809 98l-7 -8l-73 62l2 4c40 60 60 125 60 200c0 201 -156 353 -363 353c-200 0 -357 -147 -365 -339l-11 1c8 199 170 349 376 349c213 0 374 -157 374 -366c0 -72 -20 -139 -59 -200z
M426 578c116 0 207 -87 215 -207l-11 -1c-8 114 -94 197 -204 197c-118 0 -204 -90 -204 -213c0 -121 89 -213 206 -213c29 0 56 5 80 16l-106 90l7 8l119 -101c-31 -16 -63 -24 -100 -24c-124 0 -217 97 -217 226c0 126 94 222 215 222z" />
    <glyph glyph-name="r" unicode="r" horiz-adv-x="723" 
d="M390 305h-210v309h11v-298h199c107 0 172 56 172 148c0 93 -63 144 -176 144h-147v11h147c123 0 187 -54 187 -158c0 -96 -71 -156 -183 -156zM393 356h-110v11h110c73 0 116 35 116 96c0 66 -37 87 -119 95h-146v-197h-11v208h157c84 0 130 -38 130 -108
c0 -64 -50 -105 -127 -105zM682 2l-169 248c70 35 86 43 113 83c26 38 38 79 38 133c0 142 -100 230 -261 230h-312v-691h-11v702h323c167 0 272 -94 272 -243c0 -103 -51 -180 -145 -219l161 -237zM244 0h-118v667h259c160 0 242 -71 242 -207c0 -123 -93 -203 -237 -203
h-199v-208h-11v219h210c139 0 226 75 226 196c0 122 -78 192 -231 192h-248v-645h96v220h130l148 -220h107l-148 216c-9 -2 -14 -2 -40 -5l119 -176l-9 -6l-129 191c48 5 51 6 64 9l163 -240h-133l-147 220h-114v-220z" />
    <glyph glyph-name="s" unicode="s" horiz-adv-x="640" 
d="M339 125c-76 0 -138 26 -211 86l7 8c72 -58 133 -83 204 -83c61 0 95 22 95 62c0 38 -31 57 -136 83c-179 46 -235 96 -235 220c0 127 103 216 249 216c99 0 187 -30 262 -90l-7 -9c-73 59 -158 88 -255 88c-145 0 -238 -81 -238 -207c0 -115 53 -162 227 -207
c115 -30 144 -49 144 -96c0 -44 -40 -71 -106 -71zM336 -10c-113 0 -215 39 -299 113l-4 3l66 78l4 -2c96 -63 170 -90 247 -90c86 0 143 41 143 102c0 71 -42 101 -206 142c-110 29 -159 69 -170 139l10 2c11 -65 63 -106 167 -132c169 -45 210 -74 210 -154
c0 -64 -64 -110 -154 -110c-78 0 -152 26 -249 89l-52 -63c83 -70 179 -106 287 -106c157 0 250 82 250 212c0 124 -54 159 -292 225c-60 18 -79 36 -79 77c0 40 37 66 95 66c55 0 115 -22 180 -66l49 71c-75 48 -160 76 -225 76c-107 0 -181 -59 -188 -147l-11 1
c8 94 87 157 199 157c72 0 186 -40 241 -84l-62 -89c-88 53 -123 70 -183 70c-30 0 -84 -8 -84 -57c0 -41 24 -54 146 -86c148 -38 225 -92 225 -216c0 -136 -99 -221 -261 -221zM540 216c-4 73 -57 119 -167 147c-172 46 -210 74 -210 155c0 64 65 110 153 110
c58 0 116 -16 180 -53l-6 -10c-64 36 -118 52 -174 52c-85 0 -142 -41 -142 -102c0 -73 36 -96 201 -141c108 -22 172 -78 176 -157zM352 35c-80 0 -174 31 -259 85l6 9c93 -59 153 -76 253 -83c100 0 173 52 186 132l11 -2c-15 -87 -90 -141 -197 -141z" />
    <glyph glyph-name="t" unicode="t" horiz-adv-x="648" 
d="M350 0h-109v555h-212v102h533v-11h-522v-80h212v-555h98v-11zM405 5h-11v561h212v130h-571v11h582v-152h-212v-550zM350 6h-11v557h11v-557zM302 49h-11v550h-212v11h533v-11h-310v-550z" />
    <glyph glyph-name="u" unicode="u" horiz-adv-x="756" 
d="M375 -11c-198 0 -307 112 -307 314v398h11v-398c0 -196 104 -303 296 -303c194 0 299 108 299 308v388h-92v-389c0 -146 -74 -228 -205 -228s-205 84 -205 234v344h11v-344c0 -146 67 -223 194 -223s194 75 194 217v400h114v-399c0 -208 -113 -319 -310 -319zM375 32
c-167 0 -258 94 -258 264v411h115v-400c0 -109 50 -166 145 -166c94 0 144 56 144 161v399h11v-399c0 -109 -56 -172 -155 -172c-101 0 -156 63 -156 177v389h-93v-400c0 -166 85 -253 247 -253s250 91 250 257v357h11v-357c0 -173 -93 -268 -261 -268z" />
    <glyph glyph-name="v" unicode="v" horiz-adv-x="750" 
d="M338 43l-267 663h126l178 -480l177 476l10 -3l-187 -504l-185 500h-102l257 -641h62l242 605l11 -4l-246 -612h-76zM445 -6h-143l-283 704l11 5l280 -698h127l277 690h-93l-245 -616l-229 576l10 4l219 -550l237 597h117z" />
    <glyph glyph-name="w" unicode="w" horiz-adv-x="1122" 
d="M78 706h113l147 -456l151 452l11 -3l-162 -484l-155 480h-90l218 -641h49l202 565l204 -565h48l205 604l11 -3l-208 -612h-64l-195 545l-196 -545h-64zM1093 706l-244 -712h-123l-165 463l-166 -463h-123l-241 705l10 3l239 -697h107l174 485l173 -485h107l236 690h-82
l-208 -612l-214 612h-21l-214 -612l-195 572l10 3l185 -542l206 590h90l153 -451l145 447l11 -3l-156 -478l-161 474h-42l203 -579l200 590h106z" />
    <glyph glyph-name="x" unicode="x" horiz-adv-x="732" 
d="M150 0h-127l246 359l-230 339l9 6l235 -345l-239 -348h100l220 325l192 -284l-9 -6l-183 271zM695 2l-245 359l229 335h-100l-211 -307l-181 265l9 6l172 -252l205 299h127l-237 -346l241 -353zM129 46l-10 6l211 307l-237 348h132l143 -221l143 218l9 -6l-152 -233
l-149 231h-105l229 -337zM649 0h-132l-153 234l-152 -232l-9 6l161 246l159 -243h105l-238 350l204 299l9 -6l-200 -293z" />
    <glyph glyph-name="y" unicode="y" horiz-adv-x="716" 
d="M440 5h-11l1 281l262 410h-102l-232 -370l-203 328l10 6l193 -313l226 360h128l-272 -426v-276zM339 49h-11v238l-266 420h134l163 -275l164 272l10 -6l-174 -287l-169 285h-108l257 -406v-241zM388 0h-112v278l-267 420l10 6l268 -423v-270h90l1 283l233 366l10 -6
l-233 -364v-290z" />
    <glyph glyph-name="z" unicode="z" horiz-adv-x="708" 
d="M650 44h-535v79l415 482h-409v11h433l-428 -498v-63h513v79h-389l389 453v109h-562v11h573v-124l-376 -438h376v-101zM645 0h-585v124l376 437h-364v102h523v-73l-420 -489h426v-11h-450l433 504v58h-501v-80h377l-389 -452v-109h574v-11z" />
    <glyph glyph-name="endash" unicode="&#x2013;" horiz-adv-x="528" 
d="M456 281h-411v103h431v-11h-420v-81h400v-11zM481 236h-431v11h420v82h-400v11h411v-104z" />
    <glyph glyph-name="emdash" unicode="&#x2014;" horiz-adv-x="898" 
d="M825 281h-780v103h800v-11h-789v-81h769v-11zM850 236h-800v11h789v82h-769v11h780v-104z" />
    <glyph glyph-name="currency" unicode="&#xa4;" horiz-adv-x="784" 
d="M616 574c-36 24 -79 37 -128 39v11c53 -3 97 -17 134 -41zM488 35v11c82 4 143 31 202 88l8 -8c-59 -59 -121 -87 -210 -91zM761 119c-62 -82 -169 -130 -293 -130c-165 0 -304 104 -347 258h-59l-20 71h66l-1 58h-43l-19 70h72c40 164 184 274 357 274
c80 0 147 -17 202 -50l-5 -9c-58 33 -119 48 -197 48c-173 0 -316 -112 -348 -274h-67l14 -48h45l1 -80h-62l13 -49h59c38 -153 177 -258 339 -258c116 0 198 35 278 119l-60 61c-60 -64 -133 -95 -220 -95c-155 0 -258 119 -258 280c0 103 76 245 239 258l1 -11
c-134 -11 -229 -118 -229 -257c0 -147 103 -259 247 -259c87 0 169 38 219 100zM473 568c-80 0 -147 -46 -178 -122h325l-19 -70h-322v-58h311l-19 -71h-269c35 -67 98 -106 171 -106c67 0 120 24 179 80l8 -8c-79 -66 -114 -83 -187 -83c-84 0 -143 38 -188 128h277l14 49
h-306c-3 11 -3 20 -3 75l1 5h324l14 48h-328c36 97 110 144 195 144c55 0 106 -19 156 -59l25 92c-53 34 -116 51 -182 51c-175 0 -306 -132 -306 -310c0 -166 121 -298 282 -306l-1 -11c-168 8 -292 144 -292 319c0 182 137 319 317 319c75 0 135 -18 194 -57l-30 -116
c-62 44 -96 67 -163 67z" />
    <glyph glyph-name="Euro" unicode="&#x20ac;" horiz-adv-x="797" 
d="M618 574c-36 24 -79 37 -128 39v11c53 -3 97 -17 134 -41zM490 35v11c82 4 143 31 202 88l8 -8c-59 -59 -121 -87 -210 -91zM763 119c-62 -82 -169 -130 -293 -130c-165 0 -304 104 -347 258h-59l-20 71h66l-1 58h-43l-19 70h72c40 164 184 274 357 274
c80 0 147 -17 202 -50l-5 -9c-58 33 -119 48 -197 48c-173 0 -316 -112 -348 -274h-67l14 -48h45l1 -80h-62l13 -49h59c38 -153 177 -258 339 -258c116 0 198 35 278 119l-60 61c-60 -64 -133 -95 -220 -95c-155 0 -258 119 -258 280c0 103 76 245 239 258l1 -11
c-134 -11 -229 -118 -229 -257c0 -147 103 -259 247 -259c85 0 161 34 219 100zM475 568c-80 0 -147 -46 -178 -122h325l-19 -70h-322v-58h311l-19 -71h-269c35 -67 98 -106 171 -106c67 0 120 24 179 80l8 -8c-79 -66 -114 -83 -187 -83c-84 0 -143 38 -188 128h277l14 49
h-306c-3 11 -3 20 -3 75l1 5h324l14 48h-328c36 97 110 144 195 144c55 0 106 -19 156 -59l25 92c-53 34 -116 51 -182 51c-175 0 -306 -132 -306 -310c0 -166 121 -298 282 -306l-1 -11c-168 8 -292 144 -292 319c0 182 137 319 317 319c75 0 135 -18 194 -57l-30 -116
c-62 44 -96 67 -163 67z" />
    <glyph glyph-name="agrave" unicode="&#xe0;" 
d="M635 163c-7 4 -15 6 -22 6c-6 0 -11 -1 -16 -3v-166h-74v199c25 12 49 16 125 16zM719 81c4 -23 19 -35 44 -35s43 4 56 12l17 -46c-19 -10 -26 -10 -82 -15c-67 0 -105 39 -105 109c0 69 37 110 100 110c60 5 93 -37 93 -119zM745 172c-22 3 -31 -18 -31 -56l60 9
c0 31 -10 47 -29 47zM943 -3c-44 0 -69 23 -69 65v101h-22v48h22v44l74 18v-62h31v-48h-31v-95c0 -15 5 -22 16 -22c5 0 10 1 15 4v-47c-8 -3 -13 -4 -36 -6zM1035 239c-23 0 -39 13 -39 33c0 19 16 34 39 34c21 0 38 -15 38 -34s-16 -33 -38 -33zM997 0v211h74v-211h-74z
M1181 -3c-55 0 -90 43 -90 110c0 72 42 109 89 109c22 0 44 -6 55 -16l-15 -41c-6 5 -13 7 -22 7c-21 0 -32 -20 -32 -59s11 -58 32 -58c10 0 17 3 22 8l16 -45c-11 -10 -14 -10 -55 -15zM1344 -3c-68 0 -95 22 -95 75v139h74v-145c0 -13 8 -20 23 -20c8 0 14 1 19 4v161h74
v-198c-21 -10 -30 -11 -95 -16zM1466 0v308h74v-308h-74zM1656 -3c-66 0 -99 23 -99 68s37 68 118 75c0 24 -7 30 -32 30c-18 0 -40 -5 -58 -13l-15 42c28 12 55 17 87 17c58 0 87 -28 87 -82v-122c-19 -10 -28 -10 -88 -15zM1675 107c-36 -3 -49 -14 -49 -39
c0 -21 11 -31 33 -31c7 0 12 1 16 3v67zM1783 0c-7 0 -12 5 -12 12s5 12 12 12c5 0 13 -4 13 -12s-4 -12 -13 -12zM1852 149v-149h-15v148h-19v9h19v26c0 40 28 46 45 46v-10c-21 -3 -30 -14 -30 -34v-28h30v-8h-30zM1956 147c-32 0 -34 0 -39 -4v-143h-16v150
c14 6 17 7 59 10zM516 71c-28 8 -38 9 -81 10c-33 0 -58 -7 -140 -36c-13 -3 -26 -5 -40 -6c-75 0 -169 57 -290 178c106 -36 138 -44 173 -45c12 0 26 1 42 3c102 14 116 14 167 17c62 0 116 -38 169 -121zM458 170c-21 24 -46 35 -109 45c-48 13 -73 59 -91 167
c42 -59 51 -63 115 -89c79 -31 85 -43 85 -123zM508 55c-52 -31 -56 -35 -104 -98c-17 -24 -54 -38 -104 -38c-39 0 -74 3 -139 13c89 20 95 25 145 71c45 45 64 53 141 57c18 0 41 -2 61 -5z" />
    <glyph glyph-name="acircumflex" unicode="&#xe2;" 
d="M635 163c-7 4 -15 6 -22 6c-6 0 -11 -1 -16 -3v-166h-74v199c25 12 49 16 125 16zM719 81c4 -23 19 -35 44 -35s43 4 56 12l17 -46c-19 -10 -26 -10 -82 -15c-67 0 -105 39 -105 109c0 69 37 110 100 110c60 5 93 -37 93 -119zM745 172c-22 3 -31 -18 -31 -56l60 9
c0 31 -10 47 -29 47zM943 -3c-44 0 -69 23 -69 65v101h-22v48h22v44l74 18v-62h31v-48h-31v-95c0 -15 5 -22 16 -22c5 0 10 1 15 4v-47c-8 -3 -13 -4 -36 -6zM1035 239c-23 0 -39 13 -39 33c0 19 16 34 39 34c21 0 38 -15 38 -34s-16 -33 -38 -33zM997 0v211h74v-211h-74z
M1181 -3c-55 0 -90 43 -90 110c0 72 42 109 89 109c22 0 44 -6 55 -16l-15 -41c-6 5 -13 7 -22 7c-21 0 -32 -20 -32 -59s11 -58 32 -58c10 0 17 3 22 8l16 -45c-11 -10 -14 -10 -55 -15zM1344 -3c-68 0 -95 22 -95 75v139h74v-145c0 -13 8 -20 23 -20c8 0 14 1 19 4v161h74
v-198c-21 -10 -30 -11 -95 -16zM1466 0v308h74v-308h-74zM1656 -3c-66 0 -99 23 -99 68s37 68 118 75c0 24 -7 30 -32 30c-18 0 -40 -5 -58 -13l-15 42c28 12 55 17 87 17c58 0 87 -28 87 -82v-122c-19 -10 -28 -10 -88 -15zM1675 107c-36 -3 -49 -14 -49 -39
c0 -21 11 -31 33 -31c7 0 12 1 16 3v67zM1783 0c-7 0 -12 5 -12 12s5 12 12 12c5 0 13 -4 13 -12s-4 -12 -13 -12zM1852 149v-149h-15v148h-19v9h19v26c0 40 28 46 45 46v-10c-21 -3 -30 -14 -30 -34v-28h30v-8h-30zM1956 147c-32 0 -34 0 -39 -4v-143h-16v150
c14 6 17 7 59 10zM516 71c-28 8 -38 9 -81 10c-33 0 -58 -7 -140 -36c-13 -3 -26 -5 -40 -6c-75 0 -169 57 -290 178c106 -36 138 -44 173 -45c12 0 26 1 42 3c102 14 116 14 167 17c62 0 116 -38 169 -121zM458 170c-21 24 -46 35 -109 45c-48 13 -73 59 -91 167
c42 -59 51 -63 115 -89c79 -31 85 -43 85 -123zM508 55c-52 -31 -56 -35 -104 -98c-17 -24 -54 -38 -104 -38c-39 0 -74 3 -139 13c89 20 95 25 145 71c45 45 64 53 141 57c18 0 41 -2 61 -5z" />
    <glyph glyph-name="ccedilla" unicode="&#xe7;" 
d="M635 163c-7 4 -15 6 -22 6c-6 0 -11 -1 -16 -3v-166h-74v199c25 12 49 16 125 16zM719 81c4 -23 19 -35 44 -35s43 4 56 12l17 -46c-19 -10 -26 -10 -82 -15c-67 0 -105 39 -105 109c0 69 37 110 100 110c60 5 93 -37 93 -119zM745 172c-22 3 -31 -18 -31 -56l60 9
c0 31 -10 47 -29 47zM943 -3c-44 0 -69 23 -69 65v101h-22v48h22v44l74 18v-62h31v-48h-31v-95c0 -15 5 -22 16 -22c5 0 10 1 15 4v-47c-8 -3 -13 -4 -36 -6zM1035 239c-23 0 -39 13 -39 33c0 19 16 34 39 34c21 0 38 -15 38 -34s-16 -33 -38 -33zM997 0v211h74v-211h-74z
M1181 -3c-55 0 -90 43 -90 110c0 72 42 109 89 109c22 0 44 -6 55 -16l-15 -41c-6 5 -13 7 -22 7c-21 0 -32 -20 -32 -59s11 -58 32 -58c10 0 17 3 22 8l16 -45c-11 -10 -14 -10 -55 -15zM1344 -3c-68 0 -95 22 -95 75v139h74v-145c0 -13 8 -20 23 -20c8 0 14 1 19 4v161h74
v-198c-21 -10 -30 -11 -95 -16zM1466 0v308h74v-308h-74zM1656 -3c-66 0 -99 23 -99 68s37 68 118 75c0 24 -7 30 -32 30c-18 0 -40 -5 -58 -13l-15 42c28 12 55 17 87 17c58 0 87 -28 87 -82v-122c-19 -10 -28 -10 -88 -15zM1675 107c-36 -3 -49 -14 -49 -39
c0 -21 11 -31 33 -31c7 0 12 1 16 3v67zM1783 0c-7 0 -12 5 -12 12s5 12 12 12c5 0 13 -4 13 -12s-4 -12 -13 -12zM1852 149v-149h-15v148h-19v9h19v26c0 40 28 46 45 46v-10c-21 -3 -30 -14 -30 -34v-28h30v-8h-30zM1956 147c-32 0 -34 0 -39 -4v-143h-16v150
c14 6 17 7 59 10zM516 71c-28 8 -38 9 -81 10c-33 0 -58 -7 -140 -36c-13 -3 -26 -5 -40 -6c-75 0 -169 57 -290 178c106 -36 138 -44 173 -45c12 0 26 1 42 3c102 14 116 14 167 17c62 0 116 -38 169 -121zM458 170c-21 24 -46 35 -109 45c-48 13 -73 59 -91 167
c42 -59 51 -63 115 -89c79 -31 85 -43 85 -123zM508 55c-52 -31 -56 -35 -104 -98c-17 -24 -54 -38 -104 -38c-39 0 -74 3 -139 13c89 20 95 25 145 71c45 45 64 53 141 57c18 0 41 -2 61 -5z" />
    <glyph glyph-name="egrave" unicode="&#xe8;" 
d="M635 163c-7 4 -15 6 -22 6c-6 0 -11 -1 -16 -3v-166h-74v199c25 12 49 16 125 16zM719 81c4 -23 19 -35 44 -35s43 4 56 12l17 -46c-19 -10 -26 -10 -82 -15c-67 0 -105 39 -105 109c0 69 37 110 100 110c60 5 93 -37 93 -119zM745 172c-22 3 -31 -18 -31 -56l60 9
c0 31 -10 47 -29 47zM943 -3c-44 0 -69 23 -69 65v101h-22v48h22v44l74 18v-62h31v-48h-31v-95c0 -15 5 -22 16 -22c5 0 10 1 15 4v-47c-8 -3 -13 -4 -36 -6zM1035 239c-23 0 -39 13 -39 33c0 19 16 34 39 34c21 0 38 -15 38 -34s-16 -33 -38 -33zM997 0v211h74v-211h-74z
M1181 -3c-55 0 -90 43 -90 110c0 72 42 109 89 109c22 0 44 -6 55 -16l-15 -41c-6 5 -13 7 -22 7c-21 0 -32 -20 -32 -59s11 -58 32 -58c10 0 17 3 22 8l16 -45c-11 -10 -14 -10 -55 -15zM1344 -3c-68 0 -95 22 -95 75v139h74v-145c0 -13 8 -20 23 -20c8 0 14 1 19 4v161h74
v-198c-21 -10 -30 -11 -95 -16zM1466 0v308h74v-308h-74zM1656 -3c-66 0 -99 23 -99 68s37 68 118 75c0 24 -7 30 -32 30c-18 0 -40 -5 -58 -13l-15 42c28 12 55 17 87 17c58 0 87 -28 87 -82v-122c-19 -10 -28 -10 -88 -15zM1675 107c-36 -3 -49 -14 -49 -39
c0 -21 11 -31 33 -31c7 0 12 1 16 3v67zM1783 0c-7 0 -12 5 -12 12s5 12 12 12c5 0 13 -4 13 -12s-4 -12 -13 -12zM1852 149v-149h-15v148h-19v9h19v26c0 40 28 46 45 46v-10c-21 -3 -30 -14 -30 -34v-28h30v-8h-30zM1956 147c-32 0 -34 0 -39 -4v-143h-16v150
c14 6 17 7 59 10zM516 71c-28 8 -38 9 -81 10c-33 0 -58 -7 -140 -36c-13 -3 -26 -5 -40 -6c-75 0 -169 57 -290 178c106 -36 138 -44 173 -45c12 0 26 1 42 3c102 14 116 14 167 17c62 0 116 -38 169 -121zM458 170c-21 24 -46 35 -109 45c-48 13 -73 59 -91 167
c42 -59 51 -63 115 -89c79 -31 85 -43 85 -123zM508 55c-52 -31 -56 -35 -104 -98c-17 -24 -54 -38 -104 -38c-39 0 -74 3 -139 13c89 20 95 25 145 71c45 45 64 53 141 57c18 0 41 -2 61 -5z" />
    <glyph glyph-name="eacute" unicode="&#xe9;" 
d="M635 163c-7 4 -15 6 -22 6c-6 0 -11 -1 -16 -3v-166h-74v199c25 12 49 16 125 16zM719 81c4 -23 19 -35 44 -35s43 4 56 12l17 -46c-19 -10 -26 -10 -82 -15c-67 0 -105 39 -105 109c0 69 37 110 100 110c60 5 93 -37 93 -119zM745 172c-22 3 -31 -18 -31 -56l60 9
c0 31 -10 47 -29 47zM943 -3c-44 0 -69 23 -69 65v101h-22v48h22v44l74 18v-62h31v-48h-31v-95c0 -15 5 -22 16 -22c5 0 10 1 15 4v-47c-8 -3 -13 -4 -36 -6zM1035 239c-23 0 -39 13 -39 33c0 19 16 34 39 34c21 0 38 -15 38 -34s-16 -33 -38 -33zM997 0v211h74v-211h-74z
M1181 -3c-55 0 -90 43 -90 110c0 72 42 109 89 109c22 0 44 -6 55 -16l-15 -41c-6 5 -13 7 -22 7c-21 0 -32 -20 -32 -59s11 -58 32 -58c10 0 17 3 22 8l16 -45c-11 -10 -14 -10 -55 -15zM1344 -3c-68 0 -95 22 -95 75v139h74v-145c0 -13 8 -20 23 -20c8 0 14 1 19 4v161h74
v-198c-21 -10 -30 -11 -95 -16zM1466 0v308h74v-308h-74zM1656 -3c-66 0 -99 23 -99 68s37 68 118 75c0 24 -7 30 -32 30c-18 0 -40 -5 -58 -13l-15 42c28 12 55 17 87 17c58 0 87 -28 87 -82v-122c-19 -10 -28 -10 -88 -15zM1675 107c-36 -3 -49 -14 -49 -39
c0 -21 11 -31 33 -31c7 0 12 1 16 3v67zM1783 0c-7 0 -12 5 -12 12s5 12 12 12c5 0 13 -4 13 -12s-4 -12 -13 -12zM1852 149v-149h-15v148h-19v9h19v26c0 40 28 46 45 46v-10c-21 -3 -30 -14 -30 -34v-28h30v-8h-30zM1956 147c-32 0 -34 0 -39 -4v-143h-16v150
c14 6 17 7 59 10zM516 71c-28 8 -38 9 -81 10c-33 0 -58 -7 -140 -36c-13 -3 -26 -5 -40 -6c-75 0 -169 57 -290 178c106 -36 138 -44 173 -45c12 0 26 1 42 3c102 14 116 14 167 17c62 0 116 -38 169 -121zM458 170c-21 24 -46 35 -109 45c-48 13 -73 59 -91 167
c42 -59 51 -63 115 -89c79 -31 85 -43 85 -123zM508 55c-52 -31 -56 -35 -104 -98c-17 -24 -54 -38 -104 -38c-39 0 -74 3 -139 13c89 20 95 25 145 71c45 45 64 53 141 57c18 0 41 -2 61 -5z" />
    <glyph glyph-name="ecircumflex" unicode="&#xea;" 
d="M635 163c-7 4 -15 6 -22 6c-6 0 -11 -1 -16 -3v-166h-74v199c25 12 49 16 125 16zM719 81c4 -23 19 -35 44 -35s43 4 56 12l17 -46c-19 -10 -26 -10 -82 -15c-67 0 -105 39 -105 109c0 69 37 110 100 110c60 5 93 -37 93 -119zM745 172c-22 3 -31 -18 -31 -56l60 9
c0 31 -10 47 -29 47zM943 -3c-44 0 -69 23 -69 65v101h-22v48h22v44l74 18v-62h31v-48h-31v-95c0 -15 5 -22 16 -22c5 0 10 1 15 4v-47c-8 -3 -13 -4 -36 -6zM1035 239c-23 0 -39 13 -39 33c0 19 16 34 39 34c21 0 38 -15 38 -34s-16 -33 -38 -33zM997 0v211h74v-211h-74z
M1181 -3c-55 0 -90 43 -90 110c0 72 42 109 89 109c22 0 44 -6 55 -16l-15 -41c-6 5 -13 7 -22 7c-21 0 -32 -20 -32 -59s11 -58 32 -58c10 0 17 3 22 8l16 -45c-11 -10 -14 -10 -55 -15zM1344 -3c-68 0 -95 22 -95 75v139h74v-145c0 -13 8 -20 23 -20c8 0 14 1 19 4v161h74
v-198c-21 -10 -30 -11 -95 -16zM1466 0v308h74v-308h-74zM1656 -3c-66 0 -99 23 -99 68s37 68 118 75c0 24 -7 30 -32 30c-18 0 -40 -5 -58 -13l-15 42c28 12 55 17 87 17c58 0 87 -28 87 -82v-122c-19 -10 -28 -10 -88 -15zM1675 107c-36 -3 -49 -14 -49 -39
c0 -21 11 -31 33 -31c7 0 12 1 16 3v67zM1783 0c-7 0 -12 5 -12 12s5 12 12 12c5 0 13 -4 13 -12s-4 -12 -13 -12zM1852 149v-149h-15v148h-19v9h19v26c0 40 28 46 45 46v-10c-21 -3 -30 -14 -30 -34v-28h30v-8h-30zM1956 147c-32 0 -34 0 -39 -4v-143h-16v150
c14 6 17 7 59 10zM516 71c-28 8 -38 9 -81 10c-33 0 -58 -7 -140 -36c-13 -3 -26 -5 -40 -6c-75 0 -169 57 -290 178c106 -36 138 -44 173 -45c12 0 26 1 42 3c102 14 116 14 167 17c62 0 116 -38 169 -121zM458 170c-21 24 -46 35 -109 45c-48 13 -73 59 -91 167
c42 -59 51 -63 115 -89c79 -31 85 -43 85 -123zM508 55c-52 -31 -56 -35 -104 -98c-17 -24 -54 -38 -104 -38c-39 0 -74 3 -139 13c89 20 95 25 145 71c45 45 64 53 141 57c18 0 41 -2 61 -5z" />
    <glyph glyph-name="edieresis" unicode="&#xeb;" 
d="M635 163c-7 4 -15 6 -22 6c-6 0 -11 -1 -16 -3v-166h-74v199c25 12 49 16 125 16zM719 81c4 -23 19 -35 44 -35s43 4 56 12l17 -46c-19 -10 -26 -10 -82 -15c-67 0 -105 39 -105 109c0 69 37 110 100 110c60 5 93 -37 93 -119zM745 172c-22 3 -31 -18 -31 -56l60 9
c0 31 -10 47 -29 47zM943 -3c-44 0 -69 23 -69 65v101h-22v48h22v44l74 18v-62h31v-48h-31v-95c0 -15 5 -22 16 -22c5 0 10 1 15 4v-47c-8 -3 -13 -4 -36 -6zM1035 239c-23 0 -39 13 -39 33c0 19 16 34 39 34c21 0 38 -15 38 -34s-16 -33 -38 -33zM997 0v211h74v-211h-74z
M1181 -3c-55 0 -90 43 -90 110c0 72 42 109 89 109c22 0 44 -6 55 -16l-15 -41c-6 5 -13 7 -22 7c-21 0 -32 -20 -32 -59s11 -58 32 -58c10 0 17 3 22 8l16 -45c-11 -10 -14 -10 -55 -15zM1344 -3c-68 0 -95 22 -95 75v139h74v-145c0 -13 8 -20 23 -20c8 0 14 1 19 4v161h74
v-198c-21 -10 -30 -11 -95 -16zM1466 0v308h74v-308h-74zM1656 -3c-66 0 -99 23 -99 68s37 68 118 75c0 24 -7 30 -32 30c-18 0 -40 -5 -58 -13l-15 42c28 12 55 17 87 17c58 0 87 -28 87 -82v-122c-19 -10 -28 -10 -88 -15zM1675 107c-36 -3 -49 -14 -49 -39
c0 -21 11 -31 33 -31c7 0 12 1 16 3v67zM1783 0c-7 0 -12 5 -12 12s5 12 12 12c5 0 13 -4 13 -12s-4 -12 -13 -12zM1852 149v-149h-15v148h-19v9h19v26c0 40 28 46 45 46v-10c-21 -3 -30 -14 -30 -34v-28h30v-8h-30zM1956 147c-32 0 -34 0 -39 -4v-143h-16v150
c14 6 17 7 59 10zM516 71c-28 8 -38 9 -81 10c-33 0 -58 -7 -140 -36c-13 -3 -26 -5 -40 -6c-75 0 -169 57 -290 178c106 -36 138 -44 173 -45c12 0 26 1 42 3c102 14 116 14 167 17c62 0 116 -38 169 -121zM458 170c-21 24 -46 35 -109 45c-48 13 -73 59 -91 167
c42 -59 51 -63 115 -89c79 -31 85 -43 85 -123zM508 55c-52 -31 -56 -35 -104 -98c-17 -24 -54 -38 -104 -38c-39 0 -74 3 -139 13c89 20 95 25 145 71c45 45 64 53 141 57c18 0 41 -2 61 -5z" />
    <glyph glyph-name="ugrave" unicode="&#xf9;" 
d="M635 163c-7 4 -15 6 -22 6c-6 0 -11 -1 -16 -3v-166h-74v199c25 12 49 16 125 16zM719 81c4 -23 19 -35 44 -35s43 4 56 12l17 -46c-19 -10 -26 -10 -82 -15c-67 0 -105 39 -105 109c0 69 37 110 100 110c60 5 93 -37 93 -119zM745 172c-22 3 -31 -18 -31 -56l60 9
c0 31 -10 47 -29 47zM943 -3c-44 0 -69 23 -69 65v101h-22v48h22v44l74 18v-62h31v-48h-31v-95c0 -15 5 -22 16 -22c5 0 10 1 15 4v-47c-8 -3 -13 -4 -36 -6zM1035 239c-23 0 -39 13 -39 33c0 19 16 34 39 34c21 0 38 -15 38 -34s-16 -33 -38 -33zM997 0v211h74v-211h-74z
M1181 -3c-55 0 -90 43 -90 110c0 72 42 109 89 109c22 0 44 -6 55 -16l-15 -41c-6 5 -13 7 -22 7c-21 0 -32 -20 -32 -59s11 -58 32 -58c10 0 17 3 22 8l16 -45c-11 -10 -14 -10 -55 -15zM1344 -3c-68 0 -95 22 -95 75v139h74v-145c0 -13 8 -20 23 -20c8 0 14 1 19 4v161h74
v-198c-21 -10 -30 -11 -95 -16zM1466 0v308h74v-308h-74zM1656 -3c-66 0 -99 23 -99 68s37 68 118 75c0 24 -7 30 -32 30c-18 0 -40 -5 -58 -13l-15 42c28 12 55 17 87 17c58 0 87 -28 87 -82v-122c-19 -10 -28 -10 -88 -15zM1675 107c-36 -3 -49 -14 -49 -39
c0 -21 11 -31 33 -31c7 0 12 1 16 3v67zM1783 0c-7 0 -12 5 -12 12s5 12 12 12c5 0 13 -4 13 -12s-4 -12 -13 -12zM1852 149v-149h-15v148h-19v9h19v26c0 40 28 46 45 46v-10c-21 -3 -30 -14 -30 -34v-28h30v-8h-30zM1956 147c-32 0 -34 0 -39 -4v-143h-16v150
c14 6 17 7 59 10zM516 71c-28 8 -38 9 -81 10c-33 0 -58 -7 -140 -36c-13 -3 -26 -5 -40 -6c-75 0 -169 57 -290 178c106 -36 138 -44 173 -45c12 0 26 1 42 3c102 14 116 14 167 17c62 0 116 -38 169 -121zM458 170c-21 24 -46 35 -109 45c-48 13 -73 59 -91 167
c42 -59 51 -63 115 -89c79 -31 85 -43 85 -123zM508 55c-52 -31 -56 -35 -104 -98c-17 -24 -54 -38 -104 -38c-39 0 -74 3 -139 13c89 20 95 25 145 71c45 45 64 53 141 57c18 0 41 -2 61 -5z" />
    <glyph glyph-name="ocircumflex" unicode="&#xf4;" 
d="M635 163c-7 4 -15 6 -22 6c-6 0 -11 -1 -16 -3v-166h-74v199c25 12 49 16 125 16zM719 81c4 -23 19 -35 44 -35s43 4 56 12l17 -46c-19 -10 -26 -10 -82 -15c-67 0 -105 39 -105 109c0 69 37 110 100 110c60 5 93 -37 93 -119zM745 172c-22 3 -31 -18 -31 -56l60 9
c0 31 -10 47 -29 47zM943 -3c-44 0 -69 23 -69 65v101h-22v48h22v44l74 18v-62h31v-48h-31v-95c0 -15 5 -22 16 -22c5 0 10 1 15 4v-47c-8 -3 -13 -4 -36 -6zM1035 239c-23 0 -39 13 -39 33c0 19 16 34 39 34c21 0 38 -15 38 -34s-16 -33 -38 -33zM997 0v211h74v-211h-74z
M1181 -3c-55 0 -90 43 -90 110c0 72 42 109 89 109c22 0 44 -6 55 -16l-15 -41c-6 5 -13 7 -22 7c-21 0 -32 -20 -32 -59s11 -58 32 -58c10 0 17 3 22 8l16 -45c-11 -10 -14 -10 -55 -15zM1344 -3c-68 0 -95 22 -95 75v139h74v-145c0 -13 8 -20 23 -20c8 0 14 1 19 4v161h74
v-198c-21 -10 -30 -11 -95 -16zM1466 0v308h74v-308h-74zM1656 -3c-66 0 -99 23 -99 68s37 68 118 75c0 24 -7 30 -32 30c-18 0 -40 -5 -58 -13l-15 42c28 12 55 17 87 17c58 0 87 -28 87 -82v-122c-19 -10 -28 -10 -88 -15zM1675 107c-36 -3 -49 -14 -49 -39
c0 -21 11 -31 33 -31c7 0 12 1 16 3v67zM1783 0c-7 0 -12 5 -12 12s5 12 12 12c5 0 13 -4 13 -12s-4 -12 -13 -12zM1852 149v-149h-15v148h-19v9h19v26c0 40 28 46 45 46v-10c-21 -3 -30 -14 -30 -34v-28h30v-8h-30zM1956 147c-32 0 -34 0 -39 -4v-143h-16v150
c14 6 17 7 59 10zM516 71c-28 8 -38 9 -81 10c-33 0 -58 -7 -140 -36c-13 -3 -26 -5 -40 -6c-75 0 -169 57 -290 178c106 -36 138 -44 173 -45c12 0 26 1 42 3c102 14 116 14 167 17c62 0 116 -38 169 -121zM458 170c-21 24 -46 35 -109 45c-48 13 -73 59 -91 167
c42 -59 51 -63 115 -89c79 -31 85 -43 85 -123zM508 55c-52 -31 -56 -35 -104 -98c-17 -24 -54 -38 -104 -38c-39 0 -74 3 -139 13c89 20 95 25 145 71c45 45 64 53 141 57c18 0 41 -2 61 -5z" />
    <glyph glyph-name="braceleft" unicode="{" 
d="M635 163c-7 4 -15 6 -22 6c-6 0 -11 -1 -16 -3v-166h-74v199c25 12 49 16 125 16zM719 81c4 -23 19 -35 44 -35s43 4 56 12l17 -46c-19 -10 -26 -10 -82 -15c-67 0 -105 39 -105 109c0 69 37 110 100 110c60 5 93 -37 93 -119zM745 172c-22 3 -31 -18 -31 -56l60 9
c0 31 -10 47 -29 47zM943 -3c-44 0 -69 23 -69 65v101h-22v48h22v44l74 18v-62h31v-48h-31v-95c0 -15 5 -22 16 -22c5 0 10 1 15 4v-47c-8 -3 -13 -4 -36 -6zM1035 239c-23 0 -39 13 -39 33c0 19 16 34 39 34c21 0 38 -15 38 -34s-16 -33 -38 -33zM997 0v211h74v-211h-74z
M1181 -3c-55 0 -90 43 -90 110c0 72 42 109 89 109c22 0 44 -6 55 -16l-15 -41c-6 5 -13 7 -22 7c-21 0 -32 -20 -32 -59s11 -58 32 -58c10 0 17 3 22 8l16 -45c-11 -10 -14 -10 -55 -15zM1344 -3c-68 0 -95 22 -95 75v139h74v-145c0 -13 8 -20 23 -20c8 0 14 1 19 4v161h74
v-198c-21 -10 -30 -11 -95 -16zM1466 0v308h74v-308h-74zM1656 -3c-66 0 -99 23 -99 68s37 68 118 75c0 24 -7 30 -32 30c-18 0 -40 -5 -58 -13l-15 42c28 12 55 17 87 17c58 0 87 -28 87 -82v-122c-19 -10 -28 -10 -88 -15zM1675 107c-36 -3 -49 -14 -49 -39
c0 -21 11 -31 33 -31c7 0 12 1 16 3v67zM1783 0c-7 0 -12 5 -12 12s5 12 12 12c5 0 13 -4 13 -12s-4 -12 -13 -12zM1852 149v-149h-15v148h-19v9h19v26c0 40 28 46 45 46v-10c-21 -3 -30 -14 -30 -34v-28h30v-8h-30zM1956 147c-32 0 -34 0 -39 -4v-143h-16v150
c14 6 17 7 59 10zM516 71c-28 8 -38 9 -81 10c-33 0 -58 -7 -140 -36c-13 -3 -26 -5 -40 -6c-75 0 -169 57 -290 178c106 -36 138 -44 173 -45c12 0 26 1 42 3c102 14 116 14 167 17c62 0 116 -38 169 -121zM458 170c-21 24 -46 35 -109 45c-48 13 -73 59 -91 167
c42 -59 51 -63 115 -89c79 -31 85 -43 85 -123zM508 55c-52 -31 -56 -35 -104 -98c-17 -24 -54 -38 -104 -38c-39 0 -74 3 -139 13c89 20 95 25 145 71c45 45 64 53 141 57c18 0 41 -2 61 -5z" />
    <glyph glyph-name="braceright" unicode="}" 
d="M635 163c-7 4 -15 6 -22 6c-6 0 -11 -1 -16 -3v-166h-74v199c25 12 49 16 125 16zM719 81c4 -23 19 -35 44 -35s43 4 56 12l17 -46c-19 -10 -26 -10 -82 -15c-67 0 -105 39 -105 109c0 69 37 110 100 110c60 5 93 -37 93 -119zM745 172c-22 3 -31 -18 -31 -56l60 9
c0 31 -10 47 -29 47zM943 -3c-44 0 -69 23 -69 65v101h-22v48h22v44l74 18v-62h31v-48h-31v-95c0 -15 5 -22 16 -22c5 0 10 1 15 4v-47c-8 -3 -13 -4 -36 -6zM1035 239c-23 0 -39 13 -39 33c0 19 16 34 39 34c21 0 38 -15 38 -34s-16 -33 -38 -33zM997 0v211h74v-211h-74z
M1181 -3c-55 0 -90 43 -90 110c0 72 42 109 89 109c22 0 44 -6 55 -16l-15 -41c-6 5 -13 7 -22 7c-21 0 -32 -20 -32 -59s11 -58 32 -58c10 0 17 3 22 8l16 -45c-11 -10 -14 -10 -55 -15zM1344 -3c-68 0 -95 22 -95 75v139h74v-145c0 -13 8 -20 23 -20c8 0 14 1 19 4v161h74
v-198c-21 -10 -30 -11 -95 -16zM1466 0v308h74v-308h-74zM1656 -3c-66 0 -99 23 -99 68s37 68 118 75c0 24 -7 30 -32 30c-18 0 -40 -5 -58 -13l-15 42c28 12 55 17 87 17c58 0 87 -28 87 -82v-122c-19 -10 -28 -10 -88 -15zM1675 107c-36 -3 -49 -14 -49 -39
c0 -21 11 -31 33 -31c7 0 12 1 16 3v67zM1783 0c-7 0 -12 5 -12 12s5 12 12 12c5 0 13 -4 13 -12s-4 -12 -13 -12zM1852 149v-149h-15v148h-19v9h19v26c0 40 28 46 45 46v-10c-21 -3 -30 -14 -30 -34v-28h30v-8h-30zM1956 147c-32 0 -34 0 -39 -4v-143h-16v150
c14 6 17 7 59 10zM516 71c-28 8 -38 9 -81 10c-33 0 -58 -7 -140 -36c-13 -3 -26 -5 -40 -6c-75 0 -169 57 -290 178c106 -36 138 -44 173 -45c12 0 26 1 42 3c102 14 116 14 167 17c62 0 116 -38 169 -121zM458 170c-21 24 -46 35 -109 45c-48 13 -73 59 -91 167
c42 -59 51 -63 115 -89c79 -31 85 -43 85 -123zM508 55c-52 -31 -56 -35 -104 -98c-17 -24 -54 -38 -104 -38c-39 0 -74 3 -139 13c89 20 95 25 145 71c45 45 64 53 141 57c18 0 41 -2 61 -5z" />
    <glyph glyph-name="bar" unicode="|" 
d="M635 163c-7 4 -15 6 -22 6c-6 0 -11 -1 -16 -3v-166h-74v199c25 12 49 16 125 16zM719 81c4 -23 19 -35 44 -35s43 4 56 12l17 -46c-19 -10 -26 -10 -82 -15c-67 0 -105 39 -105 109c0 69 37 110 100 110c60 5 93 -37 93 -119zM745 172c-22 3 -31 -18 -31 -56l60 9
c0 31 -10 47 -29 47zM943 -3c-44 0 -69 23 -69 65v101h-22v48h22v44l74 18v-62h31v-48h-31v-95c0 -15 5 -22 16 -22c5 0 10 1 15 4v-47c-8 -3 -13 -4 -36 -6zM1035 239c-23 0 -39 13 -39 33c0 19 16 34 39 34c21 0 38 -15 38 -34s-16 -33 -38 -33zM997 0v211h74v-211h-74z
M1181 -3c-55 0 -90 43 -90 110c0 72 42 109 89 109c22 0 44 -6 55 -16l-15 -41c-6 5 -13 7 -22 7c-21 0 -32 -20 -32 -59s11 -58 32 -58c10 0 17 3 22 8l16 -45c-11 -10 -14 -10 -55 -15zM1344 -3c-68 0 -95 22 -95 75v139h74v-145c0 -13 8 -20 23 -20c8 0 14 1 19 4v161h74
v-198c-21 -10 -30 -11 -95 -16zM1466 0v308h74v-308h-74zM1656 -3c-66 0 -99 23 -99 68s37 68 118 75c0 24 -7 30 -32 30c-18 0 -40 -5 -58 -13l-15 42c28 12 55 17 87 17c58 0 87 -28 87 -82v-122c-19 -10 -28 -10 -88 -15zM1675 107c-36 -3 -49 -14 -49 -39
c0 -21 11 -31 33 -31c7 0 12 1 16 3v67zM1783 0c-7 0 -12 5 -12 12s5 12 12 12c5 0 13 -4 13 -12s-4 -12 -13 -12zM1852 149v-149h-15v148h-19v9h19v26c0 40 28 46 45 46v-10c-21 -3 -30 -14 -30 -34v-28h30v-8h-30zM1956 147c-32 0 -34 0 -39 -4v-143h-16v150
c14 6 17 7 59 10zM516 71c-28 8 -38 9 -81 10c-33 0 -58 -7 -140 -36c-13 -3 -26 -5 -40 -6c-75 0 -169 57 -290 178c106 -36 138 -44 173 -45c12 0 26 1 42 3c102 14 116 14 167 17c62 0 116 -38 169 -121zM458 170c-21 24 -46 35 -109 45c-48 13 -73 59 -91 167
c42 -59 51 -63 115 -89c79 -31 85 -43 85 -123zM508 55c-52 -31 -56 -35 -104 -98c-17 -24 -54 -38 -104 -38c-39 0 -74 3 -139 13c89 20 95 25 145 71c45 45 64 53 141 57c18 0 41 -2 61 -5z" />
    <glyph glyph-name="asciitilde" unicode="~" 
d="M635 163c-7 4 -15 6 -22 6c-6 0 -11 -1 -16 -3v-166h-74v199c25 12 49 16 125 16zM719 81c4 -23 19 -35 44 -35s43 4 56 12l17 -46c-19 -10 -26 -10 -82 -15c-67 0 -105 39 -105 109c0 69 37 110 100 110c60 5 93 -37 93 -119zM745 172c-22 3 -31 -18 -31 -56l60 9
c0 31 -10 47 -29 47zM943 -3c-44 0 -69 23 -69 65v101h-22v48h22v44l74 18v-62h31v-48h-31v-95c0 -15 5 -22 16 -22c5 0 10 1 15 4v-47c-8 -3 -13 -4 -36 -6zM1035 239c-23 0 -39 13 -39 33c0 19 16 34 39 34c21 0 38 -15 38 -34s-16 -33 -38 -33zM997 0v211h74v-211h-74z
M1181 -3c-55 0 -90 43 -90 110c0 72 42 109 89 109c22 0 44 -6 55 -16l-15 -41c-6 5 -13 7 -22 7c-21 0 -32 -20 -32 -59s11 -58 32 -58c10 0 17 3 22 8l16 -45c-11 -10 -14 -10 -55 -15zM1344 -3c-68 0 -95 22 -95 75v139h74v-145c0 -13 8 -20 23 -20c8 0 14 1 19 4v161h74
v-198c-21 -10 -30 -11 -95 -16zM1466 0v308h74v-308h-74zM1656 -3c-66 0 -99 23 -99 68s37 68 118 75c0 24 -7 30 -32 30c-18 0 -40 -5 -58 -13l-15 42c28 12 55 17 87 17c58 0 87 -28 87 -82v-122c-19 -10 -28 -10 -88 -15zM1675 107c-36 -3 -49 -14 -49 -39
c0 -21 11 -31 33 -31c7 0 12 1 16 3v67zM1783 0c-7 0 -12 5 -12 12s5 12 12 12c5 0 13 -4 13 -12s-4 -12 -13 -12zM1852 149v-149h-15v148h-19v9h19v26c0 40 28 46 45 46v-10c-21 -3 -30 -14 -30 -34v-28h30v-8h-30zM1956 147c-32 0 -34 0 -39 -4v-143h-16v150
c14 6 17 7 59 10zM516 71c-28 8 -38 9 -81 10c-33 0 -58 -7 -140 -36c-13 -3 -26 -5 -40 -6c-75 0 -169 57 -290 178c106 -36 138 -44 173 -45c12 0 26 1 42 3c102 14 116 14 167 17c62 0 116 -38 169 -121zM458 170c-21 24 -46 35 -109 45c-48 13 -73 59 -91 167
c42 -59 51 -63 115 -89c79 -31 85 -43 85 -123zM508 55c-52 -31 -56 -35 -104 -98c-17 -24 -54 -38 -104 -38c-39 0 -74 3 -139 13c89 20 95 25 145 71c45 45 64 53 141 57c18 0 41 -2 61 -5z" />
    <glyph glyph-name="parenleft" unicode="(" 
d="M635 163c-7 4 -15 6 -22 6c-6 0 -11 -1 -16 -3v-166h-74v199c25 12 49 16 125 16zM719 81c4 -23 19 -35 44 -35s43 4 56 12l17 -46c-19 -10 -26 -10 -82 -15c-67 0 -105 39 -105 109c0 69 37 110 100 110c60 5 93 -37 93 -119zM745 172c-22 3 -31 -18 -31 -56l60 9
c0 31 -10 47 -29 47zM943 -3c-44 0 -69 23 -69 65v101h-22v48h22v44l74 18v-62h31v-48h-31v-95c0 -15 5 -22 16 -22c5 0 10 1 15 4v-47c-8 -3 -13 -4 -36 -6zM1035 239c-23 0 -39 13 -39 33c0 19 16 34 39 34c21 0 38 -15 38 -34s-16 -33 -38 -33zM997 0v211h74v-211h-74z
M1181 -3c-55 0 -90 43 -90 110c0 72 42 109 89 109c22 0 44 -6 55 -16l-15 -41c-6 5 -13 7 -22 7c-21 0 -32 -20 -32 -59s11 -58 32 -58c10 0 17 3 22 8l16 -45c-11 -10 -14 -10 -55 -15zM1344 -3c-68 0 -95 22 -95 75v139h74v-145c0 -13 8 -20 23 -20c8 0 14 1 19 4v161h74
v-198c-21 -10 -30 -11 -95 -16zM1466 0v308h74v-308h-74zM1656 -3c-66 0 -99 23 -99 68s37 68 118 75c0 24 -7 30 -32 30c-18 0 -40 -5 -58 -13l-15 42c28 12 55 17 87 17c58 0 87 -28 87 -82v-122c-19 -10 -28 -10 -88 -15zM1675 107c-36 -3 -49 -14 -49 -39
c0 -21 11 -31 33 -31c7 0 12 1 16 3v67zM1783 0c-7 0 -12 5 -12 12s5 12 12 12c5 0 13 -4 13 -12s-4 -12 -13 -12zM1852 149v-149h-15v148h-19v9h19v26c0 40 28 46 45 46v-10c-21 -3 -30 -14 -30 -34v-28h30v-8h-30zM1956 147c-32 0 -34 0 -39 -4v-143h-16v150
c14 6 17 7 59 10zM516 71c-28 8 -38 9 -81 10c-33 0 -58 -7 -140 -36c-13 -3 -26 -5 -40 -6c-75 0 -169 57 -290 178c106 -36 138 -44 173 -45c12 0 26 1 42 3c102 14 116 14 167 17c62 0 116 -38 169 -121zM458 170c-21 24 -46 35 -109 45c-48 13 -73 59 -91 167
c42 -59 51 -63 115 -89c79 -31 85 -43 85 -123zM508 55c-52 -31 -56 -35 -104 -98c-17 -24 -54 -38 -104 -38c-39 0 -74 3 -139 13c89 20 95 25 145 71c45 45 64 53 141 57c18 0 41 -2 61 -5z" />
    <glyph glyph-name="parenright" unicode=")" 
d="M635 163c-7 4 -15 6 -22 6c-6 0 -11 -1 -16 -3v-166h-74v199c25 12 49 16 125 16zM719 81c4 -23 19 -35 44 -35s43 4 56 12l17 -46c-19 -10 -26 -10 -82 -15c-67 0 -105 39 -105 109c0 69 37 110 100 110c60 5 93 -37 93 -119zM745 172c-22 3 -31 -18 -31 -56l60 9
c0 31 -10 47 -29 47zM943 -3c-44 0 -69 23 -69 65v101h-22v48h22v44l74 18v-62h31v-48h-31v-95c0 -15 5 -22 16 -22c5 0 10 1 15 4v-47c-8 -3 -13 -4 -36 -6zM1035 239c-23 0 -39 13 -39 33c0 19 16 34 39 34c21 0 38 -15 38 -34s-16 -33 -38 -33zM997 0v211h74v-211h-74z
M1181 -3c-55 0 -90 43 -90 110c0 72 42 109 89 109c22 0 44 -6 55 -16l-15 -41c-6 5 -13 7 -22 7c-21 0 -32 -20 -32 -59s11 -58 32 -58c10 0 17 3 22 8l16 -45c-11 -10 -14 -10 -55 -15zM1344 -3c-68 0 -95 22 -95 75v139h74v-145c0 -13 8 -20 23 -20c8 0 14 1 19 4v161h74
v-198c-21 -10 -30 -11 -95 -16zM1466 0v308h74v-308h-74zM1656 -3c-66 0 -99 23 -99 68s37 68 118 75c0 24 -7 30 -32 30c-18 0 -40 -5 -58 -13l-15 42c28 12 55 17 87 17c58 0 87 -28 87 -82v-122c-19 -10 -28 -10 -88 -15zM1675 107c-36 -3 -49 -14 -49 -39
c0 -21 11 -31 33 -31c7 0 12 1 16 3v67zM1783 0c-7 0 -12 5 -12 12s5 12 12 12c5 0 13 -4 13 -12s-4 -12 -13 -12zM1852 149v-149h-15v148h-19v9h19v26c0 40 28 46 45 46v-10c-21 -3 -30 -14 -30 -34v-28h30v-8h-30zM1956 147c-32 0 -34 0 -39 -4v-143h-16v150
c14 6 17 7 59 10zM516 71c-28 8 -38 9 -81 10c-33 0 -58 -7 -140 -36c-13 -3 -26 -5 -40 -6c-75 0 -169 57 -290 178c106 -36 138 -44 173 -45c12 0 26 1 42 3c102 14 116 14 167 17c62 0 116 -38 169 -121zM458 170c-21 24 -46 35 -109 45c-48 13 -73 59 -91 167
c42 -59 51 -63 115 -89c79 -31 85 -43 85 -123zM508 55c-52 -31 -56 -35 -104 -98c-17 -24 -54 -38 -104 -38c-39 0 -74 3 -139 13c89 20 95 25 145 71c45 45 64 53 141 57c18 0 41 -2 61 -5z" />
    <glyph glyph-name="quotedbl" unicode="&#x22;" 
d="M635 163c-7 4 -15 6 -22 6c-6 0 -11 -1 -16 -3v-166h-74v199c25 12 49 16 125 16zM719 81c4 -23 19 -35 44 -35s43 4 56 12l17 -46c-19 -10 -26 -10 -82 -15c-67 0 -105 39 -105 109c0 69 37 110 100 110c60 5 93 -37 93 -119zM745 172c-22 3 -31 -18 -31 -56l60 9
c0 31 -10 47 -29 47zM943 -3c-44 0 -69 23 -69 65v101h-22v48h22v44l74 18v-62h31v-48h-31v-95c0 -15 5 -22 16 -22c5 0 10 1 15 4v-47c-8 -3 -13 -4 -36 -6zM1035 239c-23 0 -39 13 -39 33c0 19 16 34 39 34c21 0 38 -15 38 -34s-16 -33 -38 -33zM997 0v211h74v-211h-74z
M1181 -3c-55 0 -90 43 -90 110c0 72 42 109 89 109c22 0 44 -6 55 -16l-15 -41c-6 5 -13 7 -22 7c-21 0 -32 -20 -32 -59s11 -58 32 -58c10 0 17 3 22 8l16 -45c-11 -10 -14 -10 -55 -15zM1344 -3c-68 0 -95 22 -95 75v139h74v-145c0 -13 8 -20 23 -20c8 0 14 1 19 4v161h74
v-198c-21 -10 -30 -11 -95 -16zM1466 0v308h74v-308h-74zM1656 -3c-66 0 -99 23 -99 68s37 68 118 75c0 24 -7 30 -32 30c-18 0 -40 -5 -58 -13l-15 42c28 12 55 17 87 17c58 0 87 -28 87 -82v-122c-19 -10 -28 -10 -88 -15zM1675 107c-36 -3 -49 -14 -49 -39
c0 -21 11 -31 33 -31c7 0 12 1 16 3v67zM1783 0c-7 0 -12 5 -12 12s5 12 12 12c5 0 13 -4 13 -12s-4 -12 -13 -12zM1852 149v-149h-15v148h-19v9h19v26c0 40 28 46 45 46v-10c-21 -3 -30 -14 -30 -34v-28h30v-8h-30zM1956 147c-32 0 -34 0 -39 -4v-143h-16v150
c14 6 17 7 59 10zM516 71c-28 8 -38 9 -81 10c-33 0 -58 -7 -140 -36c-13 -3 -26 -5 -40 -6c-75 0 -169 57 -290 178c106 -36 138 -44 173 -45c12 0 26 1 42 3c102 14 116 14 167 17c62 0 116 -38 169 -121zM458 170c-21 24 -46 35 -109 45c-48 13 -73 59 -91 167
c42 -59 51 -63 115 -89c79 -31 85 -43 85 -123zM508 55c-52 -31 -56 -35 -104 -98c-17 -24 -54 -38 -104 -38c-39 0 -74 3 -139 13c89 20 95 25 145 71c45 45 64 53 141 57c18 0 41 -2 61 -5z" />
    <glyph glyph-name="dollar" unicode="$" horiz-adv-x="646" 
d="M338 383c147 -33 210 -82 215 -168l-11 -1c-5 81 -45 110 -211 160c-137 41 -167 66 -167 142c0 51 43 93 109 106v35c-57 -10 -138 -45 -145 -143h-11c5 86 65 141 167 156v-57c-72 -14 -109 -48 -109 -100c0 -65 26 -87 152 -127v240c70 0 139 -35 170 -53l-5 -9
c-54 31 -106 48 -154 50v-231zM376 126v142c53 -20 71 -38 71 -71c0 -38 -18 -56 -71 -71zM387 140c34 10 49 27 49 57c0 26 -13 40 -49 55v-112zM273 287c-152 40 -208 97 -208 213c0 115 80 196 208 212v51h114v-54c70 -11 133 -39 189 -84l-7 -8c-57 45 -106 66 -193 83
v52h-92v-49c-85 -17 -115 -28 -153 -66c-37 -37 -55 -83 -55 -139c0 -109 52 -161 197 -200v41c-103 32 -147 70 -155 135l11 1c9 -62 60 -104 155 -128v-218c-70 20 -101 36 -154 80l7 9c46 -39 91 -64 136 -75v144zM284 578v-138c-51 19 -67 36 -67 72s19 52 67 66z
M273 564c-30 -10 -45 -28 -45 -52c0 -28 11 -42 45 -56v108zM387 422c151 -41 212 -102 212 -213c0 -121 -77 -201 -212 -218v-90h-114v92c-58 8 -161 35 -238 112l65 77l4 -2c90 -58 143 -79 223 -89v244c144 -41 178 -71 178 -146c0 -53 -49 -98 -118 -107v-35
c85 11 141 59 153 129l11 -2c-19 -111 -125 -140 -197 -140c-85 0 -168 27 -260 84l6 9c99 -61 169 -81 276 -81v45c66 13 118 38 118 101c0 67 -27 87 -156 128v-240c-67 0 -143 30 -236 88l-52 -62c64 -56 170 -103 234 -103v-91h92v78c-2 0 -8 0 -38 -2v-39h-11v50
c166 0 261 77 261 212c0 106 -61 164 -212 202v157c39 -11 78 -31 115 -57l50 72c-74 46 -164 75 -214 75v54h11v-43c97 -18 124 -27 218 -83l-62 -90c-23 17 -62 42 -107 57v-133z" />
    <glyph glyph-name="exclam" unicode="!" horiz-adv-x="324" 
d="M214 35h-100v101h31v-11h-20v-79h78v79h-19v11h30v-101zM249 0h-170v172h170v-68h-11v57h-148v-150h148v58h11v-69zM183 67h-37v37h37v-37zM157 78h15v15h-15v-15zM212 242l-11 1l46 439v15h-105l14 -418l-11 -1l-14 430h127v-26zM183 237h-65l-48 445v20h11v-20l47 -434
h44l15 419l11 -1z" />
    <glyph glyph-name="numbersign" unicode="#" horiz-adv-x="700" 
d="M258 272l28 162h155l-28 -162h-155zM271 283h133l24 140h-133zM561 434h102v-11h-93l-24 -140h81v-11h-94zM138 272h-102v11h93l23 140h-80v11h93zM583 188h-97l-32 -188h-99l25 145h-133l-24 -141l-11 2l26 150h155l-25 -145h77l32 188h106v-11zM431 188h-220l-32 -188
h-99l25 145h-75v92h134l41 232h-139v92h110l25 141l10 -2l-25 -150h-109v-70h141l-76 -440l-11 2l25 146h-76v11h78l4 27h-121v-70h77l-25 -145h77l32 188h242l-27 -159l-11 2zM116 519h97l32 188h99l-25 -146h133l24 141l11 -2l-26 -150h-155l25 146h-76l-33 -188h-106v11z
M669 561v-92h-134l-40 -232h138v-92h-110l-24 -141l-11 2l25 150h109v70h-141l76 440l11 -1l-25 -146h76v-11h-78l-4 -28h121v70h-77l25 146h-76l-33 -188h-242l27 158l11 -1l-25 -146h220l32 188h99l-25 -146h75zM206 226l45 254h242l-44 -254h-243zM220 237h219l41 232
h-220z" />
    <glyph glyph-name="quotesinglbase" unicode="&#x201a;" horiz-adv-x="286" 
d="M161 68h-37v37h37v-37zM135 79h15v15h-15v-15zM27 -97l-1 11c62 4 93 33 93 87h-62v170h73v-11h-62v-148h61c0 -74 -26 -102 -102 -109zM66 -123l-2 11c79 13 105 50 105 148h-77v100h101v-74h-11v63h-79v-78h77c0 -115 -25 -154 -114 -170zM35 -160l-9 44l11 2l7 -35
c120 4 174 61 174 181v128h-57v11h68v-139c0 -128 -65 -192 -194 -192z" />
    <glyph glyph-name="quoteright" unicode="&#x2019;" horiz-adv-x="286" 
d="M129 597v37h37v-37h-37zM155 608v15h-15v-15h15zM32 432l-1 11c62 4 93 33 93 87h-62v170h73v-11h-62v-148h61c0 -73 -26 -102 -102 -109zM71 406l-2 11c79 13 105 49 105 148h-77v100h101v-74h-11v63h-79v-78h77c0 -115 -25 -154 -114 -170zM40 369l-9 44l11 2l7 -35
c121 4 174 60 174 181v128h-57v11h68v-139c0 -128 -65 -192 -194 -192z" />
    <glyph glyph-name="quoteleft" unicode="&#x2018;" horiz-adv-x="286" 
d="M158 481v-37h-37v37h37zM132 470v-15h15v15h-15zM255 646l1 -11c-66 -8 -93 -33 -93 -87h62v-170h-73v11h62v148h-61c0 62 13 101 102 109zM216 672l2 -11c-81 -16 -105 -49 -105 -148h77v-100h-101v74h11v-63h79v78h-77c0 116 25 154 114 170zM247 709l9 -44l-11 -2
l-7 35c-120 -4 -174 -61 -174 -181v-128h57v-11h-68v139c0 128 65 192 194 192z" />
    <glyph glyph-name="quotesingle" unicode="'" horiz-adv-x="286" 
d="M129 597v37h37v-37h-37zM155 608v15h-15v-15h15zM32 432l-1 11c62 4 93 33 93 87h-62v170h73v-11h-62v-148h61c0 -73 -26 -102 -102 -109zM71 406l-2 11c79 13 105 49 105 148h-77v100h101v-74h-11v63h-79v-78h77c0 -115 -25 -154 -114 -170zM40 369l-9 44l11 2l7 -35
c121 4 174 60 174 181v128h-57v11h68v-139c0 -128 -65 -192 -194 -192z" />
    <glyph glyph-name="less" unicode="&#x3c;" 
d="M635 163c-7 4 -15 6 -22 6c-6 0 -11 -1 -16 -3v-166h-74v199c25 12 49 16 125 16zM719 81c4 -23 19 -35 44 -35s43 4 56 12l17 -46c-19 -10 -26 -10 -82 -15c-67 0 -105 39 -105 109c0 69 37 110 100 110c60 5 93 -37 93 -119zM745 172c-22 3 -31 -18 -31 -56l60 9
c0 31 -10 47 -29 47zM943 -3c-44 0 -69 23 -69 65v101h-22v48h22v44l74 18v-62h31v-48h-31v-95c0 -15 5 -22 16 -22c5 0 10 1 15 4v-47c-8 -3 -13 -4 -36 -6zM1035 239c-23 0 -39 13 -39 33c0 19 16 34 39 34c21 0 38 -15 38 -34s-16 -33 -38 -33zM997 0v211h74v-211h-74z
M1181 -3c-55 0 -90 43 -90 110c0 72 42 109 89 109c22 0 44 -6 55 -16l-15 -41c-6 5 -13 7 -22 7c-21 0 -32 -20 -32 -59s11 -58 32 -58c10 0 17 3 22 8l16 -45c-11 -10 -14 -10 -55 -15zM1344 -3c-68 0 -95 22 -95 75v139h74v-145c0 -13 8 -20 23 -20c8 0 14 1 19 4v161h74
v-198c-21 -10 -30 -11 -95 -16zM1466 0v308h74v-308h-74zM1656 -3c-66 0 -99 23 -99 68s37 68 118 75c0 24 -7 30 -32 30c-18 0 -40 -5 -58 -13l-15 42c28 12 55 17 87 17c58 0 87 -28 87 -82v-122c-19 -10 -28 -10 -88 -15zM1675 107c-36 -3 -49 -14 -49 -39
c0 -21 11 -31 33 -31c7 0 12 1 16 3v67zM1783 0c-7 0 -12 5 -12 12s5 12 12 12c5 0 13 -4 13 -12s-4 -12 -13 -12zM1852 149v-149h-15v148h-19v9h19v26c0 40 28 46 45 46v-10c-21 -3 -30 -14 -30 -34v-28h30v-8h-30zM1956 147c-32 0 -34 0 -39 -4v-143h-16v150
c14 6 17 7 59 10zM516 71c-28 8 -38 9 -81 10c-33 0 -58 -7 -140 -36c-13 -3 -26 -5 -40 -6c-75 0 -169 57 -290 178c106 -36 138 -44 173 -45c12 0 26 1 42 3c102 14 116 14 167 17c62 0 116 -38 169 -121zM458 170c-21 24 -46 35 -109 45c-48 13 -73 59 -91 167
c42 -59 51 -63 115 -89c79 -31 85 -43 85 -123zM508 55c-52 -31 -56 -35 -104 -98c-17 -24 -54 -38 -104 -38c-39 0 -74 3 -139 13c89 20 95 25 145 71c45 45 64 53 141 57c18 0 41 -2 61 -5z" />
    <glyph glyph-name="greater" unicode="&#x3e;" 
d="M635 163c-7 4 -15 6 -22 6c-6 0 -11 -1 -16 -3v-166h-74v199c25 12 49 16 125 16zM719 81c4 -23 19 -35 44 -35s43 4 56 12l17 -46c-19 -10 -26 -10 -82 -15c-67 0 -105 39 -105 109c0 69 37 110 100 110c60 5 93 -37 93 -119zM745 172c-22 3 -31 -18 -31 -56l60 9
c0 31 -10 47 -29 47zM943 -3c-44 0 -69 23 -69 65v101h-22v48h22v44l74 18v-62h31v-48h-31v-95c0 -15 5 -22 16 -22c5 0 10 1 15 4v-47c-8 -3 -13 -4 -36 -6zM1035 239c-23 0 -39 13 -39 33c0 19 16 34 39 34c21 0 38 -15 38 -34s-16 -33 -38 -33zM997 0v211h74v-211h-74z
M1181 -3c-55 0 -90 43 -90 110c0 72 42 109 89 109c22 0 44 -6 55 -16l-15 -41c-6 5 -13 7 -22 7c-21 0 -32 -20 -32 -59s11 -58 32 -58c10 0 17 3 22 8l16 -45c-11 -10 -14 -10 -55 -15zM1344 -3c-68 0 -95 22 -95 75v139h74v-145c0 -13 8 -20 23 -20c8 0 14 1 19 4v161h74
v-198c-21 -10 -30 -11 -95 -16zM1466 0v308h74v-308h-74zM1656 -3c-66 0 -99 23 -99 68s37 68 118 75c0 24 -7 30 -32 30c-18 0 -40 -5 -58 -13l-15 42c28 12 55 17 87 17c58 0 87 -28 87 -82v-122c-19 -10 -28 -10 -88 -15zM1675 107c-36 -3 -49 -14 -49 -39
c0 -21 11 -31 33 -31c7 0 12 1 16 3v67zM1783 0c-7 0 -12 5 -12 12s5 12 12 12c5 0 13 -4 13 -12s-4 -12 -13 -12zM1852 149v-149h-15v148h-19v9h19v26c0 40 28 46 45 46v-10c-21 -3 -30 -14 -30 -34v-28h30v-8h-30zM1956 147c-32 0 -34 0 -39 -4v-143h-16v150
c14 6 17 7 59 10zM516 71c-28 8 -38 9 -81 10c-33 0 -58 -7 -140 -36c-13 -3 -26 -5 -40 -6c-75 0 -169 57 -290 178c106 -36 138 -44 173 -45c12 0 26 1 42 3c102 14 116 14 167 17c62 0 116 -38 169 -121zM458 170c-21 24 -46 35 -109 45c-48 13 -73 59 -91 167
c42 -59 51 -63 115 -89c79 -31 85 -43 85 -123zM508 55c-52 -31 -56 -35 -104 -98c-17 -24 -54 -38 -104 -38c-39 0 -74 3 -139 13c89 20 95 25 145 71c45 45 64 53 141 57c18 0 41 -2 61 -5z" />
  </font>
</defs>
</svg>
